<?xml version="1.0" standalone="no"?>
<!DOCTYPE svg PUBLIC "-//W3C//DTD SVG 20010904//EN"
 "http://www.w3.org/TR/2001/REC-SVG-20010904/DTD/svg10.dtd">
<svg version="1.0" xmlns="http://www.w3.org/2000/svg"
 width="16.000000pt" height="16.000000pt" viewBox="0 0 16.000000 16.000000"
 preserveAspectRatio="xMidYMid meet">
<metadata>
Created by potrace 1.11, written by Peter Selinger 2001-2013
</metadata>
<g transform="translate(0.000000,16.000000) scale(0.002867,-0.002867)"
fill="#000000" stroke="none">
<path d="M1904 4602 c-62 -22 -142 -80 -169 -122 -13 -21 -48 -46 -105 -75
-47 -23 -112 -63 -146 -88 -41 -30 -222 -227 -564 -613 -277 -313 -512 -575
-521 -582 -24 -17 -157 -175 -196 -233 -76 -111 -148 -282 -179 -429 -25 -118
-26 -373 -1 -487 102 -477 451 -844 912 -962 637 -162 1277 177 1493 791 63
176 64 192 62 753 l-1 511 60 12 c66 14 112 46 138 96 11 21 18 68 21 149 l5
118 81 -3 81 -3 6 -105 c3 -68 11 -116 21 -136 24 -44 88 -99 141 -119 l47
-18 0 -476 c0 -529 4 -574 65 -758 152 -455 520 -767 990 -838 665 -100 1288
332 1421 986 24 119 16 444 -14 550 -63 223 -166 392 -367 599 -46 47 -295
321 -555 610 -278 310 -497 544 -533 573 -34 26 -100 66 -148 90 -60 30 -93
53 -112 79 -121 170 -377 182 -523 26 -57 -61 -85 -124 -92 -207 -4 -54 -11
-73 -43 -119 -21 -29 -50 -84 -65 -122 -26 -67 -27 -68 -69 -75 -24 -3 -61
-19 -84 -35 -39 -28 -41 -29 -75 -15 -49 21 -142 19 -193 -4 l-41 -19 -24 25
c-29 31 -62 48 -110 57 -31 6 -38 12 -49 44 -16 50 -56 130 -84 167 -14 19
-25 53 -30 90 -17 136 -92 249 -202 300 -75 36 -178 43 -249 17z m-444 -1419
c454 -91 790 -505 790 -973 0 -436 -291 -832 -707 -964 -503 -158 -1059 125
-1231 629 -42 124 -55 218 -49 369 4 113 10 159 31 231 82 277 271 503 521
625 210 103 417 129 645 83z m2975 17 c127 -15 224 -43 340 -100 250 -122 439
-348 521 -625 36 -121 45 -331 19 -456 -79 -391 -354 -686 -734 -786 -126 -34
-333 -38 -456 -9 -362 83 -645 351 -751 711 -37 128 -44 330 -16 465 88 427
437 749 863 799 105 12 114 12 214 1z"/>
</g>
</svg>
