<?xml version="1.0" encoding="UTF-8"?>
<svg width="76px" height="71px" viewBox="0 0 76 71" version="1.1" xmlns="http://www.w3.org/2000/svg" xmlns:xlink="http://www.w3.org/1999/xlink">
    <!-- Generator: sketchtool 42 (36781) - http://www.bohemiancoding.com/sketch -->
    <title>16F77B54-49B7-4545-8075-835781481228</title>
    <desc>Created with sketchtool.</desc>
    <defs></defs>
    <g id="desktop" stroke="none" stroke-width="1" fill="none" fill-rule="evenodd">
        <g id="Homepage-Desktop" transform="translate(-521.000000, -2625.000000)">
            <g id="staff" transform="translate(219.000000, 2526.000000)">
                <g id="staff-3" transform="translate(302.000000, 99.000000)">
                    <path d="M40.4325168,1.55102041 C39.153442,1.55102041 38.0480814,2.23398639 37.4762719,3.37812245 L7.07472088,64.1812245 C6.55823109,65.2131701 6.6125168,66.4152109 7.21896578,67.3970068 C7.82593177,68.3788027 8.8770066,68.9650884 10.0309658,68.9650884 L70.8340678,68.9650884 C71.988027,68.9650884 73.0391018,68.3788027 73.6455508,67.3970068 C74.2525168,66.4152109 74.3062855,65.2131701 73.7903127,64.1812245 L43.3887617,3.37812245 C42.8164352,2.23398639 41.7115916,1.55102041 40.4325168,1.55102041 M70.8340678,70.5161088 L10.0309658,70.5161088 C8.33518347,70.5161088 6.79140115,69.6547755 5.90008143,68.2123265 C5.00824469,66.7703946 4.92914265,65.0037823 5.68707462,63.4874014 L36.0886256,2.68429932 C36.9168705,1.02884354 38.5811154,0 40.4325168,0 C42.2839182,0 43.9481631,1.02884354 44.7758909,2.68429932 L75.177959,63.4874014 C75.9358909,65.0037823 75.8562719,66.7703946 74.9649522,68.2123265 C74.0736324,69.6547755 72.5293331,70.5161088 70.8340678,70.5161088" id="Fill-1" fill="#39D8FF"></path>
                    <path d="M14.7103946,8.38946939 C14.7103946,12.4515918 11.4175782,15.7449252 7.35493878,15.7449252 C3.29333333,15.7449252 0,12.4515918 0,8.38946939 C0,4.32734694 3.29333333,1.03401361 7.35493878,1.03401361 C11.4175782,1.03401361 14.7103946,4.32734694 14.7103946,8.38946939" id="Fill-4" fill="#DC3E38"></path>
                    <path d="M14.7103946,30.6207619 C14.7103946,34.6828844 11.4175782,37.9762177 7.35493878,37.9762177 C3.29333333,37.9762177 0,34.6828844 0,30.6207619 C0,26.5586395 3.29333333,23.2653061 7.35493878,23.2653061 C11.4175782,23.2653061 14.7103946,26.5586395 14.7103946,30.6207619" id="Fill-6" fill="#DC3E38"></path>
                </g>
            </g>
        </g>
    </g>
</svg>