<?xml version="1.0" encoding="UTF-8"?>
<svg width="86px" height="71px" viewBox="0 0 86 71" version="1.1" xmlns="http://www.w3.org/2000/svg" xmlns:xlink="http://www.w3.org/1999/xlink">
    <!-- Generator: sketchtool 42 (36781) - http://www.bohemiancoding.com/sketch -->
    <title>D80150D2-0B7B-4830-9073-0C3290EECD16</title>
    <desc>Created with sketchtool.</desc>
    <defs></defs>
    <g id="desktop" stroke="none" stroke-width="1" fill="none" fill-rule="evenodd">
        <g id="Homepage-Desktop" transform="translate(-671.000000, -2625.000000)">
            <g id="staff" transform="translate(219.000000, 2526.000000)">
                <g id="staff-4" transform="translate(452.000000, 99.000000)">
                    <path d="M51.469943,38.5566793 L45.8823453,29.0580721 C45.6238648,28.6182375 45.1506246,28.3480123 44.6394291,28.3480123 C44.1277531,28.3480123 43.6545128,28.6182375 43.3960324,29.0580721 L37.8084346,38.5566793 C37.5470715,39.000826 37.5446693,39.551338 37.8012279,39.9983594 C38.0577866,40.4453809 38.5353508,40.7213556 39.0518313,40.7213556 L50.2265464,40.7213556 C50.7435073,40.7213556 51.2205911,40.4453809 51.4776302,39.9983594 C51.7341888,39.551338 51.7313061,39.000826 51.469943,38.5566793" id="Fill-1" fill="#DC3E38"></path>
                    <path d="M35.1354682,1.4375597 C33.9088872,1.4375597 32.6726972,1.50415775 31.425457,1.64118684 C12.9729318,3.66739667 -0.386375419,20.2867252 1.64591508,38.6888692 C2.62987039,47.6029468 7.03652961,55.6009417 14.0529765,61.2105101 C21.0694235,66.8195993 29.8567978,69.3680529 38.7955128,68.3863305 C47.7342279,67.4050873 55.7548089,63.010574 61.3798816,56.0134663 C67.0044737,49.0158795 69.5594905,40.2532048 68.5755352,31.3391273 C66.6806525,14.1807857 52.061133,1.4375597 35.1354682,1.4375597 M35.0427419,70.0302004 C27.0961497,70.0302004 19.4416693,67.3605289 13.1516581,62.3316572 C5.8344514,56.4825274 1.23945698,48.1419598 0.212741899,38.8460215 C-1.90602905,19.6561997 12.0250101,2.32585316 31.2678704,0.212442998 C50.5097698,-1.90000891 67.8889765,11.9921533 70.0082279,31.181975 C71.0344626,40.4774342 68.3694235,49.615262 62.5041274,56.9123005 C56.6388313,64.209339 48.2747307,68.7916683 38.9530994,69.8150744 C37.6453229,69.9588112 36.3399486,70.0302004 35.0427419,70.0302004" id="Fill-3" fill="#DC3E38"></path>
                    <path d="M50.5979799,1.4375597 C49.3713989,1.4375597 48.1352089,1.50415775 46.8879687,1.64118684 C28.435924,3.66739667 15.0766168,20.2867252 17.1084268,38.6888692 C18.0928626,47.6029468 22.4990413,55.6009417 29.5159687,61.2105101 C36.5324156,66.8195993 45.3193095,69.3680529 54.258505,68.3863305 C72.7105497,66.3601207 86.069857,49.7407922 84.0380469,31.3391273 C82.1436447,14.1807857 67.5241251,1.4375597 50.5979799,1.4375597 M50.5057341,70.0302004 C42.5586615,70.0302004 34.9046615,67.3605289 28.6141698,62.3316572 C21.2969631,56.4825274 16.7019687,48.1419598 15.6757341,38.8460215 C13.5569631,19.6561997 27.4880022,2.32585316 46.7303821,0.212442998 C65.9693989,-1.89809242 83.3514883,11.9921533 85.4707397,31.181975 C87.5895106,50.3713176 73.6584715,67.7021433 54.4160916,69.8150744 C53.1083151,69.9588112 51.8024603,70.0302004 50.5057341,70.0302004" id="Fill-6" fill="#3F6171"></path>
                </g>
            </g>
        </g>
    </g>
</svg>