<?xml version="1.0" encoding="UTF-8"?>
<svg width="96px" height="96px" viewBox="0 0 96 96" version="1.1" xmlns="http://www.w3.org/2000/svg" xmlns:xlink="http://www.w3.org/1999/xlink">
    <!-- Generator: sketchtool 42 (36781) - http://www.bohemiancoding.com/sketch -->
    <title>0EA3C208-D931-4F64-82CC-A8073C35A007</title>
    <desc>Created with sketchtool.</desc>
    <defs></defs>
    <g id="desktop" stroke="none" stroke-width="1" fill="none" fill-rule="evenodd">
        <g id="Homepage-Desktop" transform="translate(-521.000000, -2835.000000)">
            <g id="staff" transform="translate(219.000000, 2526.000000)">
                <g id="staff-7" transform="translate(302.000000, 309.000000)">
                    <path d="M79.4653968,30.4756825 C78.6339048,30.4756825 77.8024127,30.7926349 77.1690159,31.4255238 L31.4247619,77.1692698 C30.1589841,78.4355556 30.1589841,80.495746 31.4247619,81.7620317 L42.8914286,93.2281905 C44.1577143,94.4944762 46.2173968,94.4939683 47.4836825,93.2281905 L93.2279365,47.4844444 C94.4942222,46.2181587 94.4942222,44.1579683 93.2279365,42.8916825 L81.7617778,31.4255238 C81.128381,30.7926349 80.2968889,30.4756825 79.4653968,30.4756825 M45.1878095,95.7013333 C43.9657143,95.7013333 42.744127,95.2360635 41.8140952,94.3060317 L30.3474286,82.8393651 C28.4873651,80.9793016 28.4873651,77.9525079 30.3474286,76.0919365 L76.0916825,30.3481905 C77.951746,28.4871111 80.9790476,28.4871111 82.8391111,30.3481905 L94.3052698,41.8143492 C96.1658413,43.6744127 96.1658413,46.7012063 94.3052698,48.5617778 L48.5610159,94.3060317 C47.6309841,95.2360635 46.4088889,95.7013333 45.1878095,95.7013333" id="Fill-1" fill="#DC3E38"></path>
                    <path d="M50.5130159,1.52330159 C49.6815238,1.52330159 48.8500317,1.84025397 48.2166349,2.47314286 L2.47238095,48.2168889 C1.20660317,49.4831746 1.20660317,51.5433651 2.47238095,52.8096508 L13.9390476,64.2758095 C15.2053333,65.5420952 17.2650159,65.5415873 18.5313016,64.2758095 L64.2755556,18.5320635 C65.5418413,17.2657778 65.5418413,15.2055873 64.2755556,13.9393016 L52.8093968,2.47314286 C52.176,1.84025397 51.3445079,1.52330159 50.5130159,1.52330159 M16.2354286,66.7489524 C15.0133333,66.7489524 13.791746,66.2836825 12.8617143,65.3536508 L1.39504762,53.8869841 C-0.465015873,52.0269206 -0.465015873,49.000127 1.39504762,47.1395556 L47.1393016,1.39580952 C48.9993651,-0.465269841 52.0266667,-0.465269841 53.8867302,1.39580952 L65.3528889,12.8619683 C67.2134603,14.7220317 67.2134603,17.7488254 65.3528889,19.6093968 L19.6086349,65.3536508 C18.6786032,66.2836825 17.4565079,66.7489524 16.2354286,66.7489524" id="Fill-4" fill="#39D8FF"></path>
                </g>
            </g>
        </g>
    </g>
</svg>