<?xml version="1.0" encoding="UTF-8"?>
<svg width="86px" height="87px" viewBox="0 0 86 87" version="1.1" xmlns="http://www.w3.org/2000/svg" xmlns:xlink="http://www.w3.org/1999/xlink">
    <!-- Generator: sketchtool 42 (36781) - http://www.bohemiancoding.com/sketch -->
    <title>08CB31B0-52CE-4488-8F13-12B2156E9B4D</title>
    <desc>Created with sketchtool.</desc>
    <defs></defs>
    <g id="desktop" stroke="none" stroke-width="1" fill="none" fill-rule="evenodd">
        <g id="Homepage-Desktop" transform="translate(-219.000000, -2844.000000)">
            <g id="staff" transform="translate(219.000000, 2526.000000)">
                <g id="staff-5" transform="translate(0.000000, 318.000000)">
                    <path d="M5.52727696,1.85260757 C3.45302538,1.85260757 1.76537899,3.54025396 1.76537899,5.61450553 L1.76537899,80.5594217 C1.76537899,82.6342617 3.45302538,84.3219081 5.52727696,84.3219081 L80.4721931,84.3219081 C82.5470331,84.3219081 84.2346795,82.6342617 84.2346795,80.5594217 L84.2346795,5.61450553 C84.2346795,3.54025396 82.5470331,1.85260757 80.4721931,1.85260757 L5.52727696,1.85260757 Z M80.4721931,86.0872286 L5.52727696,86.0872286 C2.47974535,86.0872286 5.85034014e-05,83.6075417 5.85034014e-05,80.5594217 L5.85034014e-05,5.61450553 C5.85034014e-05,2.56697393 2.47974535,0.0872870748 5.52727696,0.0872870748 L80.4721931,0.0872870748 C83.5203131,0.0872870748 86,2.56697393 86,5.61450553 L86,80.5594217 C86,83.6075417 83.5203131,86.0872286 80.4721931,86.0872286 L80.4721931,86.0872286 Z" id="Fill-1" fill="#3F6171"></path>
                    <path d="M3.22524686,83.6754906 C3.81198755,84.0353345 4.48854152,84.2273695 5.19463933,84.2273695 L80.449894,84.2273695 C82.5327348,84.2273695 84.2273695,82.5327348 84.2273695,80.449894 L84.2273695,5.19404845 C84.2273695,4.57126428 84.0843773,3.98275096 83.8072561,3.4562797 L3.22524686,83.6754906 Z M80.449894,86 L5.19463933,86 C3.70562972,86 2.30761515,85.4185772 1.25762702,84.3626803 C0.912554956,84.0158356 0.914327586,83.4545026 1.26176316,83.1094306 C1.29957928,83.0716144 1.3397589,83.0379345 1.38230203,83.0089815 L83.2985111,1.46147953 C83.4698654,1.29071613 83.7097614,1.19676671 83.946703,1.20385723 C84.1889625,1.21035688 84.4182227,1.31494208 84.5807139,1.49456863 C85.5095722,2.51973993 86,3.79898826 86,5.19404845 L86,80.449894 C86,83.510045 83.5106359,86 80.449894,86 L80.449894,86 Z" id="Fill-1" fill="#39D8FF"></path>
                    <path d="M27.8136871,20.3965088 C27.8136871,24.9931211 24.0870204,28.7197878 19.4904082,28.7197878 C14.8937959,28.7197878 11.1671293,24.9931211 11.1671293,20.3965088 C11.1671293,15.7998966 14.8937959,12.0732299 19.4904082,12.0732299 C24.0870204,12.0732299 27.8136871,15.7998966 27.8136871,20.3965088" id="Fill-4" fill="#DC3E38"></path>
                </g>
            </g>
        </g>
    </g>
</svg>