<?xml version="1.0" encoding="UTF-8"?>
<svg width="76px" height="76px" viewBox="0 0 76 76" version="1.1" xmlns="http://www.w3.org/2000/svg" xmlns:xlink="http://www.w3.org/1999/xlink">
    <!-- Generator: sketchtool 42 (36781) - http://www.bohemiancoding.com/sketch -->
    <title>CC62783B-DA3F-4B85-8B11-7A564FBA3104</title>
    <desc>Created with sketchtool.</desc>
    <defs></defs>
    <g id="desktop" stroke="none" stroke-width="1" fill="none" fill-rule="evenodd">
        <g id="Homepage-Desktop" transform="translate(-371.000000, -2619.000000)">
            <g id="staff" transform="translate(219.000000, 2526.000000)">
                <g id="staff-2" transform="translate(152.000000, 93.000000)">
                    <path d="M73.4691136,60.4713864 L73.4748712,60.4713864 L73.4691136,60.4713864 Z M18.4030833,1.72626515 C17.4611439,1.72626515 16.518053,2.08553788 15.8006591,2.80293182 L2.80293182,15.8000833 C1.36756818,17.235447 1.36756818,19.5707197 2.80293182,21.0060833 L54.6550833,72.8582348 C56.090447,74.2930227 58.4257197,74.2935985 59.8610833,72.8582348 L72.8582348,59.8605076 C74.2935985,58.4251439 74.2935985,56.090447 72.8582348,54.6545076 L21.0060833,2.80293182 C20.2886894,2.08553788 19.3461742,1.72626515 18.4030833,1.72626515 L18.4030833,1.72626515 Z M57.2580833,75.6610227 C55.8728106,75.6610227 54.4886894,75.1336288 53.4339015,74.0794167 L1.58175,22.2272652 C-0.52725,20.1188409 -0.52725,16.6879015 1.58175,14.5789015 L14.5794773,1.58175 C16.6884773,-0.52725 20.1188409,-0.52725 22.2272652,1.58175 L74.0799924,53.4333258 C76.1884167,55.5423258 76.1884167,58.9732652 74.0799924,61.0822652 L61.0822652,74.0794167 C60.028053,75.1336288 58.6427803,75.6610227 57.2580833,75.6610227 L57.2580833,75.6610227 Z" id="Fill-1" fill="#3F6171"></path>
                    <path d="M57.2580833,1.72626515 C56.3155682,1.72626515 55.373053,2.08553788 54.6550833,2.80293182 L2.80293182,54.6545076 C1.36756818,56.0898712 1.36756818,58.4251439 2.80293182,59.8605076 L15.8006591,72.8576591 C17.2360227,74.2930227 19.5707197,74.292447 21.0060833,72.8576591 L72.8582348,21.0060833 C74.2935985,19.5707197 74.2935985,17.235447 72.8582348,15.8000833 L59.8610833,2.80293182 C59.1431136,2.08553788 58.2005985,1.72626515 57.2580833,1.72626515 M18.4036591,75.6610227 C17.0183864,75.6610227 15.6336894,75.1336288 14.5794773,74.0794167 L1.58175,61.0816894 C-0.52725,58.9732652 -0.52725,55.54175 1.58175,53.4333258 L53.4339015,1.58175 C55.5429015,-0.52725 58.9738409,-0.52725 61.0822652,1.58175 L74.0794167,14.5789015 C76.1884167,16.6873258 76.1884167,20.1182652 74.0794167,22.2272652 L22.2272652,74.0794167 C21.173053,75.1336288 19.7877803,75.6610227 18.4036591,75.6610227" id="Fill-4" fill="#DC3E38"></path>
                </g>
            </g>
        </g>
    </g>
</svg>