<?xml version="1.0" encoding="UTF-8"?>
<svg width="86px" height="84px" viewBox="0 0 86 84" version="1.1" xmlns="http://www.w3.org/2000/svg" xmlns:xlink="http://www.w3.org/1999/xlink">
    <!-- Generator: sketchtool 42 (36781) - http://www.bohemiancoding.com/sketch -->
    <title>956A4EFE-8E30-4E91-8F78-F950673E3E1B</title>
    <desc>Created with sketchtool.</desc>
    <defs></defs>
    <g id="desktop" stroke="none" stroke-width="1" fill="none" fill-rule="evenodd">
        <g id="Homepage-Desktop" transform="translate(-371.000000, -3074.000000)">
            <g id="staff" transform="translate(219.000000, 2526.000000)">
                <g id="staff-9" transform="translate(152.000000, 548.000000)">
                    <path d="M5.50025578,27.7866585 C3.43801088,27.7866585 1.7595483,29.4645361 1.7595483,31.527366 L1.7595483,78.1212299 C1.7595483,80.1834748 3.43742585,81.8613524 5.50025578,81.8613524 L80.0113578,81.8619374 C82.0736027,81.8619374 83.7514803,80.1840599 83.7514803,78.121815 L83.7514803,31.527951 C83.7514803,30.5287129 83.3624327,29.5891483 82.6562966,28.8830122 C81.9495755,28.1762912 81.0100109,27.7872435 80.0113578,27.7872435 L5.50025578,27.7866585 Z M80.0113578,83.6170395 L5.50025578,83.6164544 C2.46977959,83.6164544 0.0044462585,81.1511211 0.0044462585,78.1212299 L0.0044462585,31.527366 C0.0044462585,28.4968898 2.46977959,26.0315565 5.50025578,26.0315565 L80.0113578,26.0321415 C81.4792082,26.0321415 82.8593034,26.6037197 83.8971537,27.6415701 C84.9350041,28.6800054 85.5065823,30.0601007 85.5065823,31.527951 L85.5065823,78.121815 C85.5065823,81.1517061 83.041249,83.6170395 80.0113578,83.6170395 L80.0113578,83.6170395 Z" id="Fill-1" fill="#39D8FF"></path>
                    <path d="M80.0546503,1.76381905 C79.1917252,1.76381905 78.2539156,2.05926122 77.4494939,2.86134286 L2.86058231,75.4804449 C1.56239184,76.7751252 1.5910585,78.4331116 2.05265034,79.5505265 C2.51482721,80.6679415 3.66558912,81.8619959 5.50961633,81.8619959 L79.9148272,81.8619959 C81.9718068,81.8619959 83.6496844,80.1882136 83.6549497,78.131234 L83.8316299,5.51973741 C83.8363102,3.6757102 82.645181,2.52202313 81.5295211,2.05692109 C81.1006912,1.87848571 80.5922966,1.76381905 80.0546503,1.76381905 M79.9148272,83.617098 L5.50961633,83.617098 C3.24319456,83.617098 1.29678639,82.3153973 0.430936054,80.2209755 C-0.434914286,78.1265537 0.023752381,75.8314653 1.62850068,74.2308122 L76.2179973,1.6117102 C77.8151401,0.018077551 80.1119837,-0.434738776 82.2040653,0.436961905 C84.2961469,1.30866259 85.5925823,3.25799592 85.586732,5.52441769 L85.4100517,78.1353293 C85.4024463,81.157615 82.9371129,83.617098 79.9148272,83.617098" id="Fill-3" fill="#3F6171"></path>
                    <path d="M17.5286136,9.20586122 C17.5286136,13.8024735 13.8019469,17.5291401 9.20533469,17.5291401 C4.60872245,17.5291401 0.882055782,13.8024735 0.882055782,9.20586122 C0.882055782,4.60924898 4.60872245,0.882582313 9.20533469,0.882582313 C13.8019469,0.882582313 17.5286136,4.60924898 17.5286136,9.20586122" id="Fill-6" fill="#DC3E38"></path>
                    <path d="M42.1708898,9.20586122 C42.1708898,13.8024735 38.4442231,17.5291401 33.8476109,17.5291401 C29.2509986,17.5291401 25.524332,13.8024735 25.524332,9.20586122 C25.524332,4.60924898 29.2509986,0.882582313 33.8476109,0.882582313 C38.4442231,0.882582313 42.1708898,4.60924898 42.1708898,9.20586122" id="Fill-8" fill="#DC3E38"></path>
                </g>
            </g>
        </g>
    </g>
</svg>