<?xml version="1.0" encoding="UTF-8"?>
<svg width="86px" height="86px" viewBox="0 0 86 86" version="1.1" xmlns="http://www.w3.org/2000/svg" xmlns:xlink="http://www.w3.org/1999/xlink">
    <!-- Generator: sketchtool 42 (36781) - http://www.bohemiancoding.com/sketch -->
    <title>525D1427-BD7A-4AF6-BC1E-C6493CED9476</title>
    <desc>Created with sketchtool.</desc>
    <defs></defs>
    <g id="desktop" stroke="none" stroke-width="1" fill="none" fill-rule="evenodd">
        <g id="Homepage-Desktop" transform="translate(-219.000000, -3072.000000)">
            <g id="staff" transform="translate(219.000000, 2526.000000)">
                <g id="staff-9" transform="translate(0.000000, 546.000000)">
                    <path d="M42.7508925,1.75574558 C20.1457633,1.75574558 1.75521905,20.1468748 1.75521905,42.7520041 C1.75521905,65.3571333 20.1457633,83.7476776 42.7508925,83.7476776 C65.3560218,83.7476776 83.747151,65.3571333 83.747151,42.7520041 C83.747151,20.1468748 65.3560218,1.75574558 42.7508925,1.75574558 M42.7508925,85.5027796 C19.178117,85.5027796 0.000117006803,66.3247796 0.000117006803,42.7520041 C0.000117006803,19.1786435 19.178117,0.000643537415 42.7508925,0.000643537415 C66.323668,0.000643537415 85.5022531,19.1786435 85.5022531,42.7520041 C85.5022531,66.3247796 66.323668,85.5027796 42.7508925,85.5027796" id="Fill-4" fill="#3F6171"></path>
                    <path d="M47.368332,1.75492653 C45.3060871,1.75492653 43.6276245,3.43280408 43.6276245,5.49563401 L43.6287946,80.0084912 C43.6293796,82.0707361 45.3072571,83.7486136 47.369502,83.7486136 L80.0026993,83.7486136 C82.0655293,83.7486136 83.7434068,82.0713211 83.7434068,80.0084912 L83.7422367,5.49504898 C83.7422367,3.43280408 82.0643592,1.75492653 80.0015293,1.75492653 L47.368332,1.75492653 Z M80.0026993,85.5037156 L47.369502,85.5037156 C44.3396109,85.5037156 41.8742776,83.0383823 41.8736925,80.0084912 L41.8725224,5.49563401 C41.8725224,2.46515782 44.3378558,-0.000175510204 47.368332,-0.000175510204 L80.0015293,-0.000175510204 C83.0320054,-0.000175510204 85.4973388,2.46515782 85.4973388,5.49504898 L85.4985088,80.0084912 C85.4985088,83.0383823 83.0331755,85.5037156 80.0026993,85.5037156 L80.0026993,85.5037156 Z" id="Fill-1" fill="#DC3E38"></path>
                </g>
            </g>
        </g>
    </g>
</svg>