<?xml version="1.0" encoding="UTF-8"?>
<svg width="86px" height="94px" viewBox="0 0 86 94" version="1.1" xmlns="http://www.w3.org/2000/svg" xmlns:xlink="http://www.w3.org/1999/xlink">
    <!-- Generator: sketchtool 42 (36781) - http://www.bohemiancoding.com/sketch -->
    <title>500FBCCD-49AA-4AC5-91CE-92D3BB276F3B</title>
    <desc>Created with sketchtool.</desc>
    <defs></defs>
    <g id="desktop" stroke="none" stroke-width="1" fill="none" fill-rule="evenodd">
        <g id="Homepage-Desktop" transform="translate(-671.000000, -2837.000000)">
            <g id="staff" transform="translate(219.000000, 2526.000000)">
                <g id="staff-8" transform="translate(452.000000, 311.000000)">
                    <path d="M42.7526476,2.33984354 C41.3052735,2.33984354 40.0550558,3.11267347 39.4074231,4.40735374 L2.68308299,73.2313401 C2.10974966,74.3785918 2.17117823,75.7387959 2.85742313,76.8497755 C3.54366803,77.9607551 4.73362721,78.6235986 6.03942313,78.6235986 L79.4664571,78.6235986 C80.7722531,78.6235986 81.9616272,77.9607551 82.6478721,76.8497755 C83.334702,75.7387959 83.3955456,74.3785918 82.8116816,73.2108639 L46.1089878,4.42782993 C45.4508245,3.11267347 44.2006068,2.33984354 42.7526476,2.33984354 M79.4664571,80.3787007 L6.03942313,80.3787007 C4.12051156,80.3787007 2.37301497,79.404619 1.36441633,77.7723741 C0.355817687,76.1407143 0.265722449,74.1416531 1.12396735,72.4257483 L37.8483075,3.6017619 C38.7744163,1.74895918 40.6576408,0.584741497 42.7526476,0.584741497 C44.8476544,0.584741497 46.7314639,1.74837415 47.6681034,3.6222381 L84.3707973,72.4052721 C85.2395728,74.1416531 85.1494776,76.1407143 84.1408789,77.7723741 C83.1322803,79.404619 81.3847837,80.3787007 79.4664571,80.3787007" id="Fill-1" fill="#39D8FF"></path>
                    <path d="M42.7517701,9.49709116 C20.1460558,9.49709116 1.75492653,27.8882204 1.75492653,50.4939347 C1.75492653,73.099649 20.1460558,91.4907782 42.7517701,91.4907782 C65.3574844,91.4907782 83.7486136,73.099649 83.7486136,50.4939347 C83.7486136,27.8882204 65.3574844,9.49709116 42.7517701,9.49709116 M42.7517701,93.2458803 C19.1784095,93.2458803 -0.000175510204,74.0672952 -0.000175510204,50.4939347 C-0.000175510204,26.9205741 19.1784095,7.74198912 42.7517701,7.74198912 C66.3251306,7.74198912 85.5037156,26.9205741 85.5037156,50.4939347 C85.5037156,74.0672952 66.3251306,93.2458803 42.7517701,93.2458803" id="Fill-4" fill="#3F6171"></path>
                    <path d="M42.7517701,58.8170381 C38.1551578,58.8170381 34.4284912,55.0903714 34.4284912,50.4937592 C34.4284912,45.8971469 38.1551578,42.1704803 42.7517701,42.1704803 C47.3483823,42.1704803 51.075049,45.8971469 51.075049,50.4937592 C51.075049,55.0903714 47.3483823,58.8170381 42.7517701,58.8170381 Z" id="Fill-7" fill="#DC3E38"></path>
                </g>
            </g>
        </g>
    </g>
</svg>