<?xml version="1.0" encoding="UTF-8"?>
<svg width="76px" height="76px" viewBox="0 0 76 76" version="1.1" xmlns="http://www.w3.org/2000/svg" xmlns:xlink="http://www.w3.org/1999/xlink">
    <!-- Generator: sketchtool 42 (36781) - http://www.bohemiancoding.com/sketch -->
    <title>40E5A75A-14EC-41EC-B17C-090C2EA2066D</title>
    <desc>Created with sketchtool.</desc>
    <defs></defs>
    <g id="desktop" stroke="none" stroke-width="1" fill="none" fill-rule="evenodd">
        <g id="Homepage-Desktop" transform="translate(-219.000000, -2619.000000)">
            <g id="staff" transform="translate(219.000000, 2526.000000)">
                <g id="staff-1" transform="translate(0.000000, 93.000000)">
                    <path d="M4.8562966,1.55081361 C3.03384762,1.55081361 1.55107211,3.03358912 1.55107211,4.8565551 L1.55107211,70.7035755 C1.55107211,72.5260245 3.03384762,74.0088 4.8562966,74.0088 L70.703317,74.0088 C72.526283,74.0088 74.0090585,72.5260245 74.0090585,70.7035755 L74.0090585,4.8565551 C74.0090585,3.03358912 72.526283,1.55081361 70.703317,1.55081361 L4.8562966,1.55081361 Z M70.703317,75.5598204 L4.8562966,75.5598204 C2.17871837,75.5598204 5.17006803e-05,73.3816707 5.17006803e-05,70.7035755 L5.17006803e-05,4.8565551 C5.17006803e-05,2.17845986 2.17871837,-0.000206802721 4.8562966,-0.000206802721 L70.703317,-0.000206802721 C73.3814122,-0.000206802721 75.5600789,2.17845986 75.5600789,4.8565551 L75.5600789,70.7035755 C75.5600789,73.3816707 73.3814122,75.5598204 70.703317,75.5598204 L70.703317,75.5598204 Z" id="Fill-1" fill="#3F6171"></path>
                    <path d="M37.7798585,1.55081361 C17.8032327,1.55081361 1.55112381,17.8034395 1.55112381,37.7800653 C1.55112381,57.7566912 17.8032327,74.0088 37.7798585,74.0088 C57.7564844,74.0088 74.0091102,57.7566912 74.0091102,37.7800653 C74.0091102,17.8034395 57.7564844,1.55081361 37.7798585,1.55081361 M37.7798585,75.5598204 C16.9481034,75.5598204 0.000103401361,58.6118204 0.000103401361,37.7800653 C0.000103401361,16.9477932 16.9481034,-0.000206802721 37.7798585,-0.000206802721 C58.6116136,-0.000206802721 75.5601306,16.9477932 75.5601306,37.7800653 C75.5601306,58.6118204 58.6116136,75.5598204 37.7798585,75.5598204" id="Fill-4" fill="#39D8FF"></path>
                </g>
            </g>
        </g>
    </g>
</svg>