<?xml version="1.0" encoding="UTF-8"?>
<svg width="86px" height="86px" viewBox="0 0 86 86" version="1.1" xmlns="http://www.w3.org/2000/svg" xmlns:xlink="http://www.w3.org/1999/xlink">
    <!-- Generator: sketchtool 42 (36781) - http://www.bohemiancoding.com/sketch -->
    <title>86B95071-C5BD-48E8-B224-17BEFBF597FF</title>
    <desc>Created with sketchtool.</desc>
    <defs></defs>
    <g id="desktop" stroke="none" stroke-width="1" fill="none" fill-rule="evenodd">
        <g id="Homepage-Desktop" transform="translate(-521.000000, -3072.000000)">
            <g id="staff" transform="translate(219.000000, 2526.000000)">
                <g id="staff-11" transform="translate(302.000000, 546.000000)">
                    <path d="M42.7508925,1.75574558 C20.1457633,1.75574558 1.75521905,20.1468748 1.75521905,42.7520041 C1.75521905,65.3571333 20.1457633,83.7476776 42.7508925,83.7476776 C65.3560218,83.7476776 83.747151,65.3571333 83.747151,42.7520041 C83.747151,20.1468748 65.3560218,1.75574558 42.7508925,1.75574558 M42.7508925,85.5027796 C19.178117,85.5027796 0.000117006803,66.3247796 0.000117006803,42.7520041 C0.000117006803,19.1786435 19.178117,0.000643537415 42.7508925,0.000643537415 C66.323668,0.000643537415 85.5022531,19.1786435 85.5022531,42.7520041 C85.5022531,66.3247796 66.323668,85.5027796 42.7508925,85.5027796" id="Fill-6" fill="#3F6171"></path>
                    <path d="M8.34931293,1.75574558 C7.04351701,1.75574558 5.85414286,2.41858912 5.16789796,3.52956871 C4.48106803,4.6405483 4.41963946,6.00075238 5.00408844,7.16848027 L39.4169592,81.7047388 C40.0528912,82.9748476 41.3036939,83.7476776 42.751068,83.7476776 C44.1984422,83.7476776 45.4492449,82.9748476 46.0962925,81.6801673 L80.4863469,7.1930517 C81.0819116,6.00075238 81.021068,4.6405483 80.3342381,3.52956871 C79.6479932,2.41917415 78.458619,1.75574558 77.1522381,1.75574558 L8.34931293,1.75574558 Z M42.751068,85.5027796 C40.6560612,85.5027796 38.7722517,84.3391469 37.8356122,82.465283 L3.42215646,7.92902449 C2.57619728,6.23769116 2.66629252,4.23921497 3.67489116,2.60697007 C4.6834898,0.975310204 6.43098639,0.000643537415 8.34931293,0.000643537415 L77.1522381,0.000643537415 C79.0711497,0.000643537415 80.8192313,0.975310204 81.8272449,2.6075551 C82.8358435,4.23921497 82.9259388,6.23769116 82.0676939,7.95359592 L47.6782245,82.4407116 C46.7292993,84.3385619 44.8460748,85.5027796 42.751068,85.5027796 L42.751068,85.5027796 Z" id="Fill-4" fill="#39D8FF"></path>
                    <path d="M33.4123456,1.75492653 C32.4131075,1.75492653 31.4741279,2.14397415 30.7674068,2.85069524 C30.0606857,3.55683129 29.6722231,4.49639592 29.6722231,5.49563401 L29.6733932,80.0084912 C29.6733932,82.0707361 31.3518558,83.7486136 33.4135156,83.7486136 L52.0913116,83.7486136 C54.1535565,83.7486136 55.831434,82.0707361 55.831434,80.0084912 L55.8302639,5.49504898 C55.8302639,3.43280408 54.1523864,1.75492653 52.0895565,1.75492653 L33.4123456,1.75492653 Z M52.0913116,85.5037156 L52.0913116,85.5037156 L33.4135156,85.5037156 C30.3836245,85.5037156 27.9182912,83.0383823 27.9182912,80.0084912 L27.9171211,5.49563401 C27.9165361,4.02719864 28.4881143,2.6471034 29.5265497,1.60925306 C30.5644,0.571402721 31.9444952,-0.000175510204 33.4123456,-0.000175510204 L52.0895565,-0.000175510204 C55.1200327,-0.000175510204 57.585366,2.46515782 57.585366,5.49504898 L57.5865361,80.0084912 C57.5865361,83.0383823 55.1212027,85.5037156 52.0913116,85.5037156 L52.0913116,85.5037156 Z" id="Fill-1" fill="#DC3E38"></path>
                </g>
            </g>
        </g>
    </g>
</svg>