<?xml version="1.0" encoding="UTF-8"?>
<svg width="96px" height="90px" viewBox="0 0 96 90" version="1.1" xmlns="http://www.w3.org/2000/svg" xmlns:xlink="http://www.w3.org/1999/xlink">
    <!-- Generator: sketchtool 42 (36781) - http://www.bohemiancoding.com/sketch -->
    <title>691E48D8-20D4-4161-9798-2A5C1F6B71DA</title>
    <desc>Created with sketchtool.</desc>
    <defs></defs>
    <g id="desktop" stroke="none" stroke-width="1" fill="none" fill-rule="evenodd">
        <g id="Homepage-Desktop" transform="translate(-370.000000, -2841.000000)">
            <g id="staff" transform="translate(219.000000, 2526.000000)">
                <g id="staff-6" transform="translate(151.000000, 315.000000)">
                    <path d="M9.13985991,1.95918367 C7.68222726,1.95918367 6.35455379,2.69910204 5.58851297,3.93926531 C4.8218191,5.17942857 4.75390073,6.69779592 5.40565583,8.00130612 L43.806962,84.8052245 C44.5299007,86.251102 45.9261456,87.1137959 47.5418191,87.1137959 C49.1574926,87.1137959 50.5537375,86.250449 51.2760232,84.8052245 L89.6779824,8.00130612 C90.3297375,6.69779592 90.2618191,5.17942857 89.4951252,3.93926531 C88.7290844,2.6997551 87.4014109,1.95918367 85.9431252,1.95918367 L9.13985991,1.95918367 Z M47.5418191,89.0729796 C45.2032069,89.0729796 43.1003497,87.7733878 42.0547987,85.6816327 L3.6528395,8.87771429 C2.69545175,6.96228571 2.79602318,4.73142857 3.92190073,2.90938776 C5.04777828,1.088 6.99847216,0 9.13985991,0 L85.9431252,0 C88.085166,0 90.036513,1.088 91.1617375,2.91004082 C92.287615,4.73142857 92.3881864,6.96228571 91.4301456,8.87771429 L53.0288395,85.6816327 C51.9826354,87.7733878 49.8804313,89.0729796 47.5418191,89.0729796 L47.5418191,89.0729796 Z" id="Fill-4" fill="#DC3E38"></path>
                    <path d="M89.312,32.9591837 L6.13420408,32.9604898 C3.83216327,32.9604898 1.95918367,34.8334694 1.95918367,37.1361633 L1.95918367,57.9851429 C1.95918367,60.2871837 3.83216327,62.1601633 6.13420408,62.1601633 L89.312,62.1588571 C91.6140408,62.1588571 93.4870204,60.2858776 93.4870204,57.9831837 L93.4876735,37.1342041 C93.4876735,34.8321633 91.6140408,32.9591837 89.312,32.9591837 L89.312,32.9591837 Z M6.13420408,64.1193469 C2.752,64.1193469 0,61.3673469 0,57.9851429 L0,37.1361633 C0,33.7533061 2.752,31.0013061 6.13420408,31.0013061 L89.312,31 C92.6948571,31 95.4468571,33.752 95.4468571,37.1342041 L95.4462041,57.9831837 C95.4462041,61.3660408 92.6942041,64.1180408 89.312,64.1180408 L6.13420408,64.1193469 Z" id="Fill-1" fill="#39D8FF"></path>
                </g>
            </g>
        </g>
    </g>
</svg>