<?xml version="1.0" encoding="UTF-8"?>
<svg width="76px" height="91px" viewBox="0 0 76 91" version="1.1" xmlns="http://www.w3.org/2000/svg" xmlns:xlink="http://www.w3.org/1999/xlink">
    <!-- Generator: sketchtool 42 (36781) - http://www.bohemiancoding.com/sketch -->
    <title>D6B2A3F1-5DE5-4A4E-AC8C-EE7679483ACE</title>
    <desc>Created with sketchtool.</desc>
    <defs></defs>
    <g id="desktop" stroke="none" stroke-width="1" fill="none" fill-rule="evenodd">
        <g id="Homepage-Desktop" transform="translate(-255.000000, -8847.000000)" fill="#39D8FF">
            <g id="core-programs" transform="translate(71.000000, 7810.000000)">
                <g id="after-school" transform="translate(148.000000, 223.000000)">
                    <g id="numbers" transform="translate(0.000000, 777.000000)">
                        <g id="afterschool" transform="translate(36.000000, 37.000000)">
                            <path d="M39.4416273,30.7175309 C34.1297834,30.7175309 29.0047883,29.1512951 24.6197737,26.1882463 C24.1111298,25.844222 23.9784078,25.1539537 24.3224468,24.647165 C24.6672273,24.1388967 25.3590127,24.0064659 25.8669151,24.3504902 C29.8819395,27.0642138 34.5761444,28.4980187 39.4416273,28.4980187 C43.38992,28.4980187 47.1543298,27.5806203 50.6317932,25.7702382 C51.1775102,25.4883602 51.8485346,25.6977341 52.1325151,26.2415146 C52.4164956,26.7852951 52.2051785,27.4555878 51.6609444,27.7389455 C47.9158127,29.6869374 43.6902127,30.7175309 39.4416273,30.7175309" id="Fill-1"></path>
                            <path d="M68.2471844,21.8980033 C65.6743063,19.4816943 62.6239259,17.7157024 59.5246088,16.4172878 C58.860999,16.9692065 58.1781112,17.4952309 57.4752039,17.9872228 C60.8154966,19.2449463 64.0601405,21.0138976 66.7227356,23.514548 C71.0632624,27.5895724 73.2646673,33.0673285 73.2646673,39.7924504 C73.2646673,46.8431008 70.5331161,52.4599463 67.3715161,58.9631171 C64.7645307,64.3247187 61.809799,70.4024829 59.996921,78.2588163 C58.6118673,84.2618569 53.4075356,88.6194992 47.622638,88.6194992 C45.9484137,88.6194992 44.2170966,88.6194992 41.8496039,87.7279951 C40.5260917,87.2308244 39.1351063,86.9814992 37.744121,86.9814992 C36.3538771,86.9814992 34.9628917,87.2308244 33.6393795,87.7279951 C31.2718868,88.6194992 29.5405698,88.6194992 27.8663454,88.6194992 C22.0807063,88.6194992 16.8771161,84.2618569 15.4920624,78.2588163 C13.6791844,70.4024829 10.7244527,64.3254585 8.11746732,58.9638569 C4.95512585,52.4599463 2.2243161,46.8431008 2.2243161,39.7924504 C2.2243161,33.0702878 4.42349659,27.5947512 8.7603161,23.518987 C13.8749307,18.7122634 21.1486868,16.5889301 27.1226576,15.6633935 C26.5087259,15.0315724 25.9711649,14.3649789 25.5099746,13.6673122 C19.8963551,14.6712715 12.55216,16.9107593 7.24179902,21.8980033 C2.43637463,26.4102715 -7.41463414e-05,32.4303285 -7.41463414e-05,39.7924504 C-7.41463414e-05,47.3528488 2.83454049,53.1820276 6.11625756,59.9323041 C8.67134049,65.1881089 11.568238,71.1445398 13.3240234,78.7574667 C14.9389307,85.7570683 21.0552624,90.8390114 27.8663454,90.8390114 C29.6525307,90.8390114 31.6774673,90.8390114 34.4245893,89.8047187 C36.5651941,88.9997756 38.9237893,88.9997756 41.0643941,89.8047187 C43.8115161,90.8390114 45.8364527,90.8390114 47.622638,90.8390114 C54.433721,90.8390114 60.5493112,85.7570683 62.16496,78.7574667 C63.9214868,71.1445398 66.8176429,65.1881089 69.3727259,59.9315642 C72.6544429,53.1820276 75.4890576,47.3528488 75.4890576,39.7924504 C75.4890576,32.4303285 73.0518673,26.4102715 68.2471844,21.8980033 M36.224121,12.7484341 C36.1143844,12.7484341 35.9994576,12.7476943 35.8793405,12.7476943 C35.9119649,12.9274748 35.9497795,13.1050358 35.9764722,13.2870358 C36.0535844,13.1028163 36.1418185,12.9282146 36.224121,12.7484341" id="Fill-3"></path>
                            <path d="M51.1316137,20.1322333 C45.7782478,22.1601276 40.4226576,21.9470545 35.5949893,19.5255667 C36.0331941,14.633022 37.9528429,10.6748919 41.335399,7.71332276 C48.0189502,1.86046911 59.0964137,1.30337154 66.5629502,3.26394065 C66.912921,3.35642033 67.2740137,3.46221707 67.6721795,3.59094878 C64.6737015,11.0026398 58.2867356,17.4236886 51.1316137,20.1322333 M24.2973112,2.5566561 C24.2995356,2.53372114 24.3010185,2.51078618 24.3032429,2.48637154 C30.3669307,4.11623333 33.9874966,7.84723333 34.8372137,13.2251114 C34.1795356,14.8860463 33.7331746,16.680152 33.4973893,18.5933715 C26.530599,15.6051683 23.591438,10.4559 24.2973112,2.5566561 M69.4946966,1.86786748 C68.5619356,1.53346098 67.8323356,1.30263171 67.1294283,1.1184122 C58.8435746,-1.05892927 47.2018576,-0.378278862 39.8680429,6.04498943 C38.4807649,7.25980244 37.3174088,8.64403821 36.3638868,10.1718024 C34.5851161,5.0195748 30.1963941,1.45133902 23.6107161,0.0367699187 C23.3170966,-0.0253764228 23.0079063,0.0323308943 22.7572917,0.201013821 C22.5066771,0.368217073 22.335399,0.63085935 22.2820137,0.927534146 C22.1819161,1.49129024 22.1196332,1.93297317 22.0810771,2.36059919 C21.2647259,11.511648 24.9423844,17.5975504 33.3046088,20.9172008 C33.2519649,22.5219081 33.3290771,24.1961602 33.552999,25.9421764 C33.6241795,26.5014935 34.1031649,26.9106236 34.6540722,26.9106236 C34.7015259,26.9106236 34.7489795,26.9076642 34.7971746,26.9017455 C35.4066576,26.8240626 35.8367063,26.2684447 35.7588527,25.6602984 C35.5935063,24.3707618 35.5074966,23.1293146 35.4993405,21.9359569 C40.6547356,24.2375911 46.2943063,24.3389488 51.9205307,22.2082171 C59.9958088,19.1504691 67.1583454,11.7232415 70.1672039,3.2846561 C70.3733307,2.70758293 70.0722966,2.07428211 69.4946966,1.86786748" id="Fill-6"></path>
                        </g>
                    </g>
                </g>
            </g>
        </g>
    </g>
</svg>