<?xml version="1.0" encoding="UTF-8"?>
<svg width="155px" height="99px" viewBox="0 0 155 99" version="1.1" xmlns="http://www.w3.org/2000/svg" xmlns:xlink="http://www.w3.org/1999/xlink">
    <!-- Generator: sketchtool 42 (36781) - http://www.bohemiancoding.com/sketch -->
    <title>53E132B1-E0CA-4BB5-81B6-4FBBA4DE3C0E</title>
    <desc>Created with sketchtool.</desc>
    <defs></defs>
    <g id="desktop" stroke="none" stroke-width="1" fill="none" fill-rule="evenodd">
        <g id="Homepage-Desktop" transform="translate(-475.000000, -10032.000000)" fill="#39D8FF">
            <g id="core-programs" transform="translate(71.000000, 7810.000000)">
                <g id="field-trips" transform="translate(146.000000, 1498.000000)">
                    <g id="numbers" transform="translate(0.000000, 685.000000)">
                        <g id="authors" transform="translate(258.000000, 39.000000)">
                            <path d="M51.3813667,35.7952833 L55.2020333,39.6165611 C55.9885333,40.40245 55.9885333,41.6778389 55.2020333,42.4643389 L10.9551444,86.7106167 C10.8891444,86.7766167 10.8115333,86.8297833 10.7265889,86.8676722 L1.06125556,91.13445 C0.439144444,91.4088389 -0.200077778,90.7848944 0.0590333333,90.1566722 L4.12964444,80.2817278 C4.16753333,80.18945 4.22314444,80.1057278 4.29342222,80.0360611 L48.5335889,35.7952833 C49.3194778,35.0093944 50.5948667,35.0093944 51.3813667,35.7952833" id="Fill-1"></path>
                            <path d="M53.1574389,40.8016889 L50.1556611,37.7999111 C49.5622722,37.2065222 49.5622722,36.2446333 50.1556611,35.6506333 L54.4138833,31.3930222 C55.0072722,30.7996333 55.9697722,30.7996333 56.5631611,31.3930222 L59.5643278,34.3948 C60.1583278,34.9881889 60.1583278,35.9506889 59.5643278,36.5434667 L55.3067167,40.8016889 C54.7133278,41.3950778 53.7508278,41.3950778 53.1574389,40.8016889" id="Fill-4"></path>
                            <path d="M39.7485,64.0896056 C39.5138333,64.0896056 39.2791667,64.0003833 39.1001111,63.8213278 C38.7426111,63.4632167 38.7426111,62.8826611 39.1001111,62.52455 L54.6883333,46.9369389 L51.4219444,43.6699389 C51.0638333,43.3118278 51.0638333,42.7318833 51.4219444,42.3737722 C51.7794444,42.0156611 52.36,42.0156611 52.7181111,42.3737722 L56.6328889,46.28855 C56.991,46.6466611 56.991,47.2266056 56.6328889,47.5847167 L40.3968889,63.8213278 C40.2178333,64.0003833 39.9831667,64.0896056 39.7485,64.0896056" id="Fill-6"></path>
                            <path d="M109.6843,2.44255 C104.8993,2.44255 99.2202444,4.45677222 92.4711333,8.52921667 C79.4116889,16.4101056 71.8345222,33.71555 76.5743,44.8371611 C78.8207444,50.1086056 85.8454667,58.0774944 107.648689,52.21205 C115.547911,50.0872167 125.225467,46.4297167 133.725411,40.1908833 C132.684078,33.8744389 130.845244,26.9627722 128.043911,19.4571056 C124.491522,11.9697722 120.738689,5.08621667 113.9798,3.05121667 C112.634744,2.64605 111.204133,2.44255 109.6843,2.44255 M40.9648556,98.5373278 C38.8546889,98.5379389 36.7866889,97.1623278 34.8054667,94.4367722 C32.6684111,91.4979389 30.1756889,89.85955 27.3951333,89.5686611 C22.5245778,89.0571611 18.3097444,92.80205 18.2675778,92.84055 C17.8917444,93.1803278 17.3124111,93.1497722 16.9732444,92.7727167 C16.6340778,92.3968833 16.6640222,91.81755 17.0398556,91.4783833 C17.2360222,91.3011611 21.9140778,87.1559944 27.5864111,87.7451056 C30.9047444,88.0922167 33.8325778,89.9811611 36.2880222,93.3587722 C38.0840778,95.8294944 39.8343,96.9374389 41.4861333,96.6599944 C44.0882444,96.2187722 46.6848556,92.3052167 48.6110778,85.92155 C50.6173556,79.27205 54.0200222,75.1611056 58.7231333,73.7042167 C65.4306889,71.62705 74.4733,75.1048833 85.5973556,84.04605 C96.5423556,92.8417722 110.275856,93.7119944 120.5853,86.2637722 C130.042244,79.4303278 137.206911,64.7691611 134.036467,42.2277167 C125.5133,48.28505 115.965911,51.8734944 108.124744,53.9824389 C84.9838,60.2084389 77.3681333,51.3748278 74.8882444,45.5558278 C69.8215222,33.6678833 77.7513,15.2709944 91.5245222,6.95988333 C100.886133,1.31016111 108.405244,-0.542116667 114.508411,1.29549444 C121.997578,3.55049444 125.975911,10.8184389 129.717744,18.7066611 C129.728744,18.7298833 129.738522,18.7543278 129.7483,18.7787722 C132.376078,25.8151056 134.257078,32.5428278 135.384578,38.9271056 C139.658689,35.5501056 143.572244,31.4752167 146.724967,26.5606611 C152.5238,17.52355 153.004133,9.81010556 153.008411,9.73310556 C153.0353,9.22832778 153.471633,8.86166111 153.972133,8.86716111 C154.477522,8.89405 154.865578,9.32427222 154.8393,9.82966111 C154.821578,10.1596611 154.3498,18.0222167 148.330356,27.4534944 C144.851911,32.9033833 140.482467,37.3534944 135.723744,40.9847167 C136.906856,48.7232167 136.957578,55.9422722 135.867356,62.5807722 C134.050522,73.6437167 129.137189,82.34655 121.659022,87.7499944 C110.661467,95.6944389 96.0559111,94.8022167 84.4496889,85.4748278 C73.8291889,76.9394389 65.3555222,73.5691611 59.2658,75.4556611 C55.1799111,76.7212722 52.1854667,80.4209389 50.3661889,86.4513833 C48.1686333,93.7346056 45.2035222,97.88955 41.7923,98.4676611 C41.5160778,98.5141056 41.2398556,98.5373278 40.9648556,98.5373278" id="Fill-8"></path>
                        </g>
                    </g>
                </g>
            </g>
        </g>
    </g>
</svg>