<?xml version="1.0" encoding="UTF-8"?>
<svg width="99px" height="91px" viewBox="0 0 99 91" version="1.1" xmlns="http://www.w3.org/2000/svg" xmlns:xlink="http://www.w3.org/1999/xlink">
    <!-- Generator: sketchtool 42 (36781) - http://www.bohemiancoding.com/sketch -->
    <title>FC6140CB-D932-45C3-877D-9F0502C86CF1</title>
    <desc>Created with sketchtool.</desc>
    <defs></defs>
    <g id="desktop" stroke="none" stroke-width="1" fill="none" fill-rule="evenodd">
        <g id="Homepage-Desktop" transform="translate(-668.000000, -5154.000000)" fill="#39D8FF">
            <g id="at-a-glance" transform="translate(170.000000, 4511.000000)">
                <path d="M592.186932,731.527361 L566.336299,731.527361 C564.906778,731.527361 563.744644,730.365227 563.744644,728.936446 L563.744644,724.39679 L594.777846,724.39679 L594.777846,728.936446 C594.777846,730.365227 593.615712,731.527361 592.186932,731.527361 L592.186932,731.527361 Z M588.533135,702.884348 L594.390468,722.174737 L564.024623,722.174737 L569.511614,702.884348 L588.533135,702.884348 Z M558.376903,697.084047 L564.277937,697.084047 C564.891224,697.084047 565.388964,696.586307 565.388964,695.97302 L565.388964,691.694085 C565.388964,691.080798 564.891224,690.583058 564.277937,690.583058 L558.376903,690.583058 L558.376903,677.426278 L564.277937,677.426278 C564.891224,677.426278 565.388964,676.928538 565.388964,676.315251 L565.388964,672.036317 C565.388964,671.42303 564.891224,670.92529 564.277937,670.92529 L558.376903,670.92529 L558.376903,667.931443 L582.238797,667.931443 C583.489813,667.931443 584.571213,668.778786 584.869709,669.992768 L591.685488,697.692149 C591.863252,698.412094 591.702524,699.160186 591.245522,699.743845 C590.787038,700.327505 590.099683,700.662294 589.357517,700.662294 L558.376903,700.662294 L558.376903,697.084047 Z M551.186337,694.861993 L563.167651,694.861993 L563.167651,692.805112 L551.186337,692.805112 L551.186337,694.861993 Z M548.964283,700.662294 L546.231898,700.662294 L546.231898,695.980427 C546.231898,695.978205 546.232639,695.975242 546.232639,695.97302 C546.232639,695.970798 546.231898,695.967835 546.231898,695.965613 L546.231898,677.426278 L548.964283,677.426278 L548.964283,691.686678 C548.964283,691.6889 548.963543,691.691863 548.963543,691.694085 C548.963543,691.696307 548.964283,691.69927 548.964283,691.700751 L548.964283,700.662294 Z M529.448726,694.861993 L529.448726,692.805112 L537.727358,692.805112 C537.72958,692.805112 537.731802,692.805853 537.734024,692.805853 C537.736246,692.805853 537.739209,692.805112 537.741431,692.805112 L544.009844,692.805112 L544.009844,694.861993 L529.448726,694.861993 Z M536.622997,700.662294 L505.643124,700.662294 C504.900958,700.662294 504.213603,700.327505 503.755119,699.743845 C503.298117,699.160186 503.137388,698.412094 503.315152,697.692149 L510.130191,669.992768 C510.429428,668.778786 511.510827,667.931443 512.761103,667.931443 L536.622997,667.931443 L536.622997,670.92529 L528.337699,670.92529 C527.724413,670.92529 527.226673,671.42303 527.226673,672.036317 L527.226673,676.315251 C527.226673,676.928538 527.724413,677.426278 528.337699,677.426278 L536.622997,677.426278 L536.622997,690.583058 L528.337699,690.583058 C527.724413,690.583058 527.226673,691.080798 527.226673,691.694085 L527.226673,695.97302 C527.226673,696.586307 527.724413,697.084047 528.337699,697.084047 L536.622997,697.084047 L536.622997,700.662294 Z M530.975277,722.174737 L500.609432,722.174737 L506.467506,702.884348 L525.489027,702.884348 L530.975277,722.174737 Z M528.664341,731.527361 L502.813709,731.527361 C501.384188,731.527361 500.222054,730.365227 500.222054,728.936446 L500.222054,724.39679 L531.255256,724.39679 L531.255256,728.936446 C531.255256,730.365227 530.093122,731.527361 528.664341,731.527361 L528.664341,731.527361 Z M522.687017,665.709389 L536.622997,665.709389 L536.622997,662.902194 L522.687017,662.902194 L522.687017,665.709389 Z M518.239206,660.680141 L541.104139,660.680141 L541.104139,657.676665 L518.239206,657.676665 L518.239206,660.680141 Z M521.044178,655.454611 L538.257688,655.454611 L538.257688,653.228113 L521.044178,653.228113 L521.044178,655.454611 Z M522.562582,645.222054 L536.740766,645.222054 C537.576999,645.222054 538.257688,645.902002 538.257688,646.738976 L538.257688,651.00606 L521.044178,651.00606 L521.044178,646.738976 C521.044178,645.902002 521.725608,645.222054 522.562582,645.222054 L522.562582,645.222054 Z M553.895761,660.680141 L576.761435,660.680141 L576.761435,657.676665 L553.895761,657.676665 L553.895761,660.680141 Z M556.742212,655.454611 L573.954981,655.454611 L573.954981,653.228113 L556.742212,653.228113 L556.742212,655.454611 Z M558.259875,645.222054 L572.438059,645.222054 C573.275032,645.222054 573.955722,645.902002 573.955722,646.738976 L573.955722,651.00606 L556.742212,651.00606 L556.742212,646.738976 C556.742212,645.902002 557.422901,645.222054 558.259875,645.222054 L558.259875,645.222054 Z M538.845051,670.92529 L538.845051,662.902194 L552.656596,662.902194 C552.78029,662.902194 552.895837,662.877011 553.00768,662.839977 C553.148411,662.876271 553.294325,662.902194 553.446906,662.902194 L556.154849,662.902194 L556.154849,670.92529 L538.845051,670.92529 Z M538.845051,690.583058 L544.009844,690.583058 L544.009844,677.426278 L538.845051,677.426278 L538.845051,690.583058 Z M529.448726,675.204225 L563.16691,675.204225 L563.16691,673.147343 L529.448726,673.147343 L529.448726,675.204225 Z M551.186337,690.583058 L556.154849,690.583058 L556.154849,677.426278 L551.186337,677.426278 L551.186337,690.583058 Z M558.376903,665.709389 L572.312883,665.709389 L572.312883,662.902194 L558.376903,662.902194 L558.376903,665.709389 Z M596.95694,722.996897 C596.954718,722.985786 596.955459,722.973935 596.952496,722.962825 L590.786297,702.655476 C591.647713,702.376238 592.417285,701.850352 592.994278,701.113371 C593.874952,699.989012 594.184558,698.549121 593.843102,697.161819 L587.027323,669.461697 C586.48366,667.252235 584.514921,665.709389 582.238797,665.709389 L574.534937,665.709389 L574.534937,662.902194 L577.209549,662.902194 C578.187993,662.902194 578.983488,662.105959 578.983488,661.128255 L578.983488,657.22781 C578.983488,656.250106 578.187993,655.454611 577.209549,655.454611 L576.177775,655.454611 L576.177775,646.738976 C576.177775,644.67691 574.500125,643 572.438059,643 L558.259875,643 C556.197809,643 554.520158,644.67691 554.520158,646.738976 L554.520158,655.454611 L553.446906,655.454611 C552.469203,655.454611 551.673708,656.250106 551.673708,657.22781 L551.673708,660.680141 L543.326192,660.680141 L543.326192,657.22781 C543.326192,656.250106 542.530697,655.454611 541.552994,655.454611 L540.479742,655.454611 L540.479742,646.738976 C540.479742,644.67691 538.802832,643 536.740766,643 L522.562582,643 C520.500516,643 518.822125,644.67691 518.822125,646.738976 L518.822125,655.454611 L517.791092,655.454611 C516.812647,655.454611 516.017152,656.250106 516.017152,657.22781 L516.017152,661.128255 C516.017152,662.105959 516.812647,662.902194 517.791092,662.902194 L520.464963,662.902194 L520.464963,665.709389 L512.761103,665.709389 C510.48572,665.709389 508.51698,667.252235 507.972577,669.461697 L501.156798,697.161819 C500.816083,698.549121 501.125689,699.989752 502.006363,701.114112 C502.583356,701.850352 503.352187,702.376979 504.215084,702.655476 L498.047404,722.962825 C498.0437,722.973935 498.045182,722.985786 498.04296,722.996897 C498.017036,723.089482 498,723.18503 498,723.285764 L498,728.936446 C498,731.590319 500.159096,733.749415 502.813709,733.749415 L528.664341,733.749415 C531.318214,733.749415 533.47731,731.590319 533.47731,728.936446 L533.47731,723.004303 C533.47731,722.901348 533.463237,722.799134 533.435091,722.700623 L527.798481,702.884348 L537.734024,702.884348 C538.348051,702.884348 538.845051,702.386608 538.845051,701.773321 L538.845051,697.084047 L544.009844,697.084047 L544.009844,701.773321 C544.009844,702.386608 544.507584,702.884348 545.120871,702.884348 L550.07531,702.884348 C550.688597,702.884348 551.186337,702.386608 551.186337,701.773321 L551.186337,697.084047 L556.154849,697.084047 L556.154849,701.773321 C556.154849,702.386608 556.651849,702.884348 557.265876,702.884348 L567.20216,702.884348 L561.564809,722.700623 C561.536663,722.799134 561.52259,722.901348 561.52259,723.004303 L561.52259,728.936446 C561.52259,731.590319 563.681686,733.749415 566.336299,733.749415 L592.186932,733.749415 C594.840804,733.749415 596.9999,731.590319 596.9999,728.936446 L596.9999,723.285764 C596.9999,723.18503 596.982864,723.089482 596.95694,722.996897 L596.95694,722.996897 Z" id="fieldtrips"></path>
            </g>
        </g>
    </g>
</svg>