<?xml version="1.0" encoding="UTF-8"?>
<svg width="111px" height="111px" viewBox="0 0 111 111" version="1.1" xmlns="http://www.w3.org/2000/svg" xmlns:xlink="http://www.w3.org/1999/xlink">
    <!-- Generator: sketchtool 42 (36781) - http://www.bohemiancoding.com/sketch -->
    <title>5EF0BD4E-6179-41B5-98CB-F244AC3E9F49</title>
    <desc>Created with sketchtool.</desc>
    <defs></defs>
    <g id="desktop" stroke="none" stroke-width="1" fill="none" fill-rule="evenodd">
        <g id="Homepage-Desktop" transform="translate(-694.000000, -4765.000000)" fill="#39D8FF">
            <g id="at-a-glance" transform="translate(170.000000, 4511.000000)">
                <path d="M581.937904,310.436192 C581.203597,311.341375 580.305341,312.08107 579.15,312.08107 C577.530522,312.08107 576.21816,310.769478 576.21816,309.15 C576.21816,308.027757 576.854713,307.05253 577.688313,306.443686 L589.388734,297.969906 L590.484807,299.257637 L581.937904,310.436192 Z M592.243603,297.759774 L591.146761,296.472043 C590.69186,295.938631 590.042991,295.660764 589.387964,295.660764 C588.91613,295.660764 588.441986,295.803931 588.034038,296.099501 L576.583774,304.391629 L559.548466,287.696535 C559.10819,287.264725 558.40698,287.254719 557.955158,287.674983 C557.503336,288.094477 557.460232,288.794916 557.858174,289.265981 L573.885157,308.258671 C573.913636,308.292539 573.947504,308.317939 573.979062,308.347958 C573.937498,308.61274 573.909018,308.8806 573.909018,309.15 C573.909018,312.039506 576.260494,314.390212 579.15,314.390212 C580.842601,314.390212 582.384338,313.549685 583.730567,311.891721 C583.745192,311.874017 583.759047,311.857084 583.772902,311.838611 L592.319035,300.660056 C592.980219,299.795667 592.948661,298.587216 592.243603,297.759774 L592.243603,297.759774 Z M594.10862,332.841793 C593.791498,332.288369 593.08413,332.09671 592.533015,332.415372 C591.979591,332.732494 591.788702,333.437552 592.105824,333.990976 L594.032418,337.350008 C594.244859,337.721779 594.634334,337.930372 595.034585,337.930372 C595.230093,337.930372 595.42637,337.88111 595.608022,337.777199 C596.161447,337.459307 596.352336,336.754249 596.034444,336.201595 L594.10862,332.841793 Z M564.252957,285.418951 C564.466168,285.790723 564.855643,285.999315 565.255125,285.999315 C565.450632,285.999315 565.647679,285.950054 565.828562,285.846142 C566.381986,285.52902 566.572875,284.823962 566.255753,284.270538 L564.234484,280.746018 C563.918132,280.191824 563.210765,280.000935 562.65888,280.318827 C562.105456,280.635949 561.914567,281.341007 562.231689,281.894431 L564.252957,285.418951 Z M607.345389,324.085528 L603.98174,322.136613 C603.432934,321.819491 602.724027,322.004222 602.403826,322.556876 C602.084395,323.108761 602.272205,323.815359 602.82409,324.13479 L606.18774,326.083706 C606.369392,326.189156 606.568748,326.239188 606.765795,326.239188 C607.163737,326.239188 607.550903,326.033674 607.765653,325.663442 C608.085084,325.111557 607.897274,324.40496 607.345389,324.085528 L607.345389,324.085528 Z M555.542105,294.069766 L552.102254,292.076207 C551.552678,291.758315 550.844542,291.945355 550.524341,292.49647 C550.204909,293.048355 550.393489,293.754953 550.944604,294.074384 L554.384456,296.067943 C554.566108,296.173394 554.765464,296.223425 554.962511,296.223425 C555.361223,296.223425 555.748389,296.017911 555.962369,295.647679 C556.2818,295.095794 556.09399,294.389197 555.542105,294.069766 L555.542105,294.069766 Z M611.079271,307.971568 L607.142185,307.964641 L607.139876,307.964641 C606.503322,307.964641 605.986075,308.480349 605.985305,309.116902 C605.984535,309.754995 606.500244,310.273013 607.137567,310.273782 L611.074653,310.28071 L611.076962,310.28071 C611.714285,310.28071 612.230763,309.765001 612.231533,309.128448 C612.232303,308.490355 611.716595,307.972338 611.079271,307.971568 L611.079271,307.971568 Z M551.160124,310.184495 C551.796678,310.184495 552.313925,309.668787 552.314695,309.031464 C552.315465,308.394141 551.799756,307.876124 551.161664,307.875354 L547.233814,307.869196 L547.232274,307.869196 C546.595721,307.869196 546.078473,308.384904 546.077703,309.022227 C546.076934,309.659551 546.592642,310.177568 547.230735,310.178338 L551.158585,310.184495 L551.160124,310.184495 Z M595.616489,280.395029 C595.065374,280.079446 594.358777,280.268796 594.040885,280.82068 L592.053484,284.281314 C591.735592,284.833969 591.926481,285.539027 592.479135,285.856918 C592.660788,285.96083 592.858604,286.010861 593.053342,286.010861 C593.453593,286.010861 593.842299,285.802269 594.055509,285.431267 L596.042911,281.971403 C596.360033,281.417978 596.169913,280.71292 595.616489,280.395029 L595.616489,280.395029 Z M565.739275,332.396129 C565.18739,332.081316 564.480793,332.267587 564.162901,332.822551 L562.239386,336.170036 C561.922264,336.721921 562.112383,337.427749 562.665807,337.745641 C562.84669,337.849552 563.044507,337.899583 563.240014,337.899583 C563.639495,337.899583 564.028201,337.691761 564.242181,337.319989 L566.165696,333.972503 C566.482819,333.419849 566.292699,332.714021 565.739275,332.396129 L565.739275,332.396129 Z M603.369817,296.267299 C603.566094,296.267299 603.763911,296.217267 603.945563,296.113356 L607.382336,294.131343 C607.934221,293.812681 608.12434,293.106853 607.805678,292.554969 C607.485477,292.001544 606.777341,291.813734 606.229304,292.130856 L602.792532,294.1121 C602.239877,294.430761 602.050528,295.136589 602.368419,295.689244 C602.5824,296.059476 602.970336,296.267299 603.369817,296.267299 L603.369817,296.267299 Z M554.29209,322.075805 L550.918434,324.020872 C550.365779,324.339534 550.17643,325.045361 550.494322,325.598016 C550.709072,325.969018 551.097008,326.176071 551.495719,326.176071 C551.691997,326.176071 551.890583,326.126809 552.071465,326.022128 L555.445121,324.077061 C555.997776,323.7584 556.187126,323.052572 555.869234,322.499918 C555.549033,321.946493 554.841666,321.758683 554.29209,322.075805 L554.29209,322.075805 Z M579.15,282.314695 C579.787323,282.314695 580.304571,281.797447 580.304571,281.160124 L580.304571,277.154533 C580.304571,276.51721 579.787323,275.999962 579.15,275.999962 C578.512677,275.999962 577.995429,276.51721 577.995429,277.154533 L577.995429,281.160124 C577.995429,281.797447 578.512677,282.314695 579.15,282.314695 L579.15,282.314695 Z M579.15,335.985305 C578.512677,335.985305 577.995429,336.502553 577.995429,337.139876 L577.995429,340.999991 C577.995429,341.637314 578.512677,342.154562 579.15,342.154562 C579.787323,342.154562 580.304571,341.637314 580.304571,340.999991 L580.304571,337.139876 C580.304571,336.502553 579.787323,335.985305 579.15,335.985305 L579.15,335.985305 Z M579.15,347.581045 C557.960546,347.581045 540.720495,330.340993 540.720495,309.15077 C540.720495,287.960546 557.960546,270.720495 579.15,270.720495 C600.340223,270.720495 617.580275,287.960546 617.580275,309.15077 C617.580275,330.340993 600.340223,347.581045 579.15,347.581045 L579.15,347.581045 Z M579.15,268.411353 C556.68667,268.411353 538.411353,286.68744 538.411353,309.15077 C538.411353,331.61487 556.68667,349.890186 579.15,349.890186 C601.61333,349.890186 619.889417,331.61487 619.889417,309.15077 C619.889417,286.68744 601.61333,268.411353 579.15,268.411353 L579.15,268.411353 Z M579.15,361.990858 C550.013251,361.990858 526.309142,338.286749 526.309142,309.15 C526.309142,280.01402 550.013251,256.309142 579.15,256.309142 C608.28598,256.309142 631.990858,280.01402 631.990858,309.15 C631.990858,338.286749 608.28598,361.990858 579.15,361.990858 L579.15,361.990858 Z M579.15,254 C548.740144,254 524,278.740144 524,309.15 C524,339.559856 548.740144,364.3 579.15,364.3 C609.559856,364.3 634.3,339.559856 634.3,309.15 C634.3,278.740144 609.559856,254 579.15,254 L579.15,254 Z" id="hours"></path>
            </g>
        </g>
    </g>
</svg>