<?xml version="1.0" encoding="UTF-8"?>
<svg width="93px" height="104px" viewBox="0 0 93 104" version="1.1" xmlns="http://www.w3.org/2000/svg" xmlns:xlink="http://www.w3.org/1999/xlink">
    <!-- Generator: sketchtool 42 (36781) - http://www.bohemiancoding.com/sketch -->
    <title>40A90689-CB1F-48CE-A341-9604474EEFF0</title>
    <desc>Created with sketchtool.</desc>
    <defs></defs>
    <g id="desktop" stroke="none" stroke-width="1" fill="none" fill-rule="evenodd">
        <g id="Homepage-Desktop" transform="translate(-237.000000, -4987.000000)" fill="#39D8FF">
            <path d="M274.307173,5001.13922 L274.307173,5038.90719 C274.307173,5039.66596 273.692272,5040.28178 272.932581,5040.28178 C272.17289,5040.28178 271.557988,5039.66596 271.557988,5038.90719 L271.557988,4996.1262 C271.557988,4992.98938 269.004912,4990.43631 265.868092,4990.43631 C262.730356,4990.43631 260.177279,4992.98938 260.177279,4996.1262 L260.177279,5012.97205 C260.17734,5012.98526 260.177371,5012.99848 260.177371,5013.0117 L260.177371,5044.40556 C260.177371,5045.16433 259.56247,5045.78015 258.802778,5045.78015 C258.043087,5045.78015 257.428186,5045.16433 257.428186,5044.40556 L257.428186,5015.22433 C257.428125,5015.219 257.428094,5015.21365 257.428094,5015.2083 L257.428094,5012.97915 C257.410509,5009.85633 254.864251,5007.3218 251.737373,5007.3218 C248.600553,5007.3218 246.047476,5009.87396 246.047476,5013.0117 L246.047476,5055.12005 C246.047537,5055.12539 246.047568,5055.13073 246.047568,5055.13609 C246.047568,5073.88278 261.29913,5089.13526 280.046739,5089.13526 C292.994776,5089.13526 304.638033,5081.94755 310.449503,5070.372 L323.086787,5038.3853 C323.642123,5036.97314 323.611882,5035.42718 323.004312,5034.03334 C322.395825,5032.64134 321.281489,5031.56824 319.865659,5031.0129 C316.944192,5029.86741 313.636922,5031.31257 312.489596,5034.23312 L305.47001,5052.14131 C304.95408,5053.46 303.618892,5054.19678 302.229637,5053.93469 C300.83855,5053.67169 299.866255,5052.4987 299.866255,5051.08287 L299.866255,4996.12666 C299.866255,4992.98893 297.314095,4990.43677 294.176358,4990.43677 C291.057435,4990.43677 288.516181,4992.95841 288.48582,4996.07029 L288.48582,5038.90719 C288.48582,5039.66596 287.870003,5040.28178 287.111228,5040.28178 C286.352453,5040.28178 285.736635,5039.66596 285.736635,5038.90719 L285.736635,4996.15441 C285.736452,4996.14518 285.73636,4996.13593 285.73636,4996.12666 C285.73636,4996.10376 285.736452,4996.08087 285.736635,4996.05801 L285.736635,4984.47149 C285.736635,4981.33376 283.184475,4978.7816 280.046739,4978.7816 C276.909002,4978.7816 274.355926,4981.33376 274.355926,4984.47149 L274.355926,5000.77508 C274.355926,5000.90113 274.338957,5001.02323 274.307173,5001.13922 Z M271.606741,4989.94386 L271.606741,4984.47149 C271.606741,4979.81804 275.392368,4976.03241 280.046739,4976.03241 C284.700192,4976.03241 288.48582,4979.81804 288.48582,4984.47149 L288.48582,4989.89959 C289.987587,4988.52635 291.985933,4987.68758 294.176358,4987.68758 C298.829812,4987.68758 302.61544,4991.47321 302.61544,4996.12666 L302.61544,5051.08287 C302.61544,5051.15068 302.61544,5051.20933 302.740069,5051.23316 C302.865615,5051.2524 302.886692,5051.202 302.910519,5051.13877 L309.930104,5033.22966 C311.630017,5028.89695 316.536396,5026.7535 320.870028,5028.45341 C322.968572,5029.27725 324.621749,5030.86811 325.523482,5032.93367 C326.426131,5035.00014 326.468285,5037.29388 325.645362,5039.39242 L312.989947,5071.42776 C312.97057,5071.47661 312.948724,5071.52374 312.924609,5071.56905 C306.649166,5084.10111 294.054655,5091.88444 280.046739,5091.88444 C259.894374,5091.88444 243.47904,5075.57946 243.299864,5055.46863 C243.298819,5055.44665 243.298291,5055.42454 243.298291,5055.4023 L243.298291,5013.0117 C243.298291,5008.35825 247.083919,5004.57262 251.737373,5004.57262 C253.928142,5004.57262 255.926441,5005.41132 257.428094,5006.78446 L257.428094,4996.1262 C257.428094,4991.47275 261.213722,4987.68712 265.868092,4987.68712 C268.082199,4987.68712 270.099844,4988.54413 271.606741,4989.94386 Z" id="icon-volunteers" transform="translate(284.765632, 5033.958427) rotate(-35.000000) translate(-284.765632, -5033.958427) "></path>
        </g>
    </g>
</svg>