<?xml version="1.0" encoding="utf-8"?>
<!-- Generator: Adobe Illustrator 19.0.0, SVG Export Plug-In . SVG Version: 6.00 Build 0)  -->
<svg version="1.1" id="Menu" xmlns="http://www.w3.org/2000/svg" xmlns:xlink="http://www.w3.org/1999/xlink" x="0px" y="0px"
	 width="20px" height="20px" viewBox="-264 176 20 20" style="enable-background:new -264 176 20 20;" xml:space="preserve">
<style type="text/css">
	.st0{fill:#FFFFFF;}
</style>
<path class="st0" d="M-246.7,186.3h-14.6c-0.6,0-0.7,0.3-0.7,0.8s0.1,0.8,0.7,0.8h14.6c0.6,0,0.7-0.3,0.7-0.8
	S-246.1,186.3-246.7,186.3z M-246.7,190.9h-14.6c-0.6,0-0.7,0.3-0.7,0.8s0.1,0.8,0.7,0.8h14.6c0.6,0,0.7-0.3,0.7-0.8
	S-246.1,190.9-246.7,190.9z M-261.3,183.1h14.6c0.6,0,0.7-0.3,0.7-0.8s-0.1-0.8-0.7-0.8h-14.6c-0.6,0-0.7,0.3-0.7,0.8
	S-261.9,183.1-261.3,183.1z"/>
</svg>
