<?xml version="1.0" encoding="UTF-8"?>
<svg width="101px" height="117px" viewBox="0 0 101 117" version="1.1" xmlns="http://www.w3.org/2000/svg" xmlns:xlink="http://www.w3.org/1999/xlink">
    <!-- Generator: sketchtool 42 (36781) - http://www.bohemiancoding.com/sketch -->
    <title>D5023466-031D-4130-9B37-5FF96B6D2BF1</title>
    <desc>Created with sketchtool.</desc>
    <defs></defs>
    <g id="desktop" stroke="none" stroke-width="1" fill="none" fill-rule="evenodd">
        <g id="Homepage-Desktop" transform="translate(-535.000000, -11455.000000)" fill="#39D8FF">
            <g id="core-programs" transform="translate(71.000000, 7810.000000)">
                <g id="in-schools" transform="translate(148.000000, 2866.000000)">
                    <g id="numbers" transform="translate(0.000000, 754.000000)">
                        <g id="publications" transform="translate(368.000000, 85.500000) rotate(-19.000000) translate(-368.000000, -85.500000) translate(330.000000, 32.000000)">
                            <path d="M1.03988868,90.6382078 L1.04682127,90.6382078 L1.03988868,90.6382078 Z M69.2073649,3.08441558 L6.51178293,3.08580519 C4.06804453,3.08580519 2.07977737,5.07850649 2.07977737,7.52769481 L2.07977737,90.6382078 C2.07977737,91.8249351 2.54079468,92.9400974 3.37755844,93.7794221 C4.21501546,94.6187468 5.32838961,95.0807922 6.51178293,95.0807922 L69.2073649,95.0794026 C71.6511033,95.0794026 73.6400637,93.0860065 73.6400637,90.637513 L73.6400637,7.527 C73.6400637,5.07711688 71.6511033,3.08441558 69.2073649,3.08441558 L69.2073649,3.08441558 Z M6.51178293,97.1652078 C4.77239579,97.1652078 3.13699753,96.4856883 1.90715584,95.2537987 C0.677314162,94.0205195 -6.25277607e-13,92.381474 -6.25277607e-13,90.6382078 L-6.25277607e-13,7.52769481 C-6.25277607e-13,3.9292987 2.92139394,1.00138961 6.51178293,1.00138961 L69.2073649,1 C72.7984471,1 75.7198411,3.92790909 75.7198411,7.527 L75.7198411,90.637513 C75.7198411,94.2359091 72.7984471,97.1638182 69.2073649,97.1638182 L6.51178293,97.1652078 Z" id="Fill-1"></path>
                            <path d="M8.12991905,96.8577896 C7.55520724,96.8577896 7.09003036,96.3908805 7.09003036,95.8155818 L7.09003036,1.73826364 C7.09003036,1.16296494 7.55520724,0.696055844 8.12991905,0.696055844 C8.70463086,0.696055844 9.16980773,1.16296494 9.16980773,1.73826364 L9.16980773,95.8155818 C9.16980773,96.3908805 8.70463086,96.8577896 8.12991905,96.8577896" id="Fill-4"></path>
                            <path d="M27.7730003,101.951476 C27.9026398,101.951476 28.031586,101.975794 28.1535996,102.023736 L33.7807839,104.242944 L33.7807839,96.8578591 L21.76591,96.8578591 L21.76591,104.242944 L27.3924011,102.023736 C27.5144147,101.975794 27.6433609,101.951476 27.7730003,101.951476 M34.8206725,106.815112 C34.6917263,106.815112 34.5627801,106.791489 34.43938,106.742853 L27.7730003,104.11371 L21.1066206,106.742853 C20.7870281,106.868612 20.4251469,106.829703 20.1409106,106.633768 C19.8566744,106.439918 19.6861327,106.117528 19.6861327,105.772905 L19.6861327,95.8156513 C19.6861327,95.2403526 20.1513095,94.7734435 20.7260213,94.7734435 L34.8206725,94.7734435 C35.3946911,94.7734435 35.8605612,95.2403526 35.8605612,95.8156513 L35.8605612,105.772905 C35.8605612,106.117528 35.6900195,106.439918 35.4057832,106.633768 C35.2303887,106.753969 35.0258772,106.815112 34.8206725,106.815112" id="Fill-6"></path>
                            <path d="M25.0797774,27.999461 L57.6657291,27.999461 L57.6657291,19.0851104 L25.0797774,19.0851104 L25.0797774,27.999461 Z M58.7056178,30.0838766 L24.0398887,30.0838766 C23.4651769,30.0838766 23,29.6169675 23,29.0416688 L23,18.0422078 C23,17.4669091 23.4651769,17 24.0398887,17 L58.7056178,17 C59.2803296,17 59.7455065,17.4669091 59.7455065,18.0422078 L59.7455065,29.0416688 C59.7455065,29.6169675 59.2803296,30.0838766 58.7056178,30.0838766 L58.7056178,30.0838766 Z" id="Fill-9"></path>
                        </g>
                    </g>
                </g>
            </g>
        </g>
    </g>
</svg>