<?xml version="1.0" encoding="UTF-8"?>
<svg width="106px" height="85px" viewBox="0 0 106 85" version="1.1" xmlns="http://www.w3.org/2000/svg" xmlns:xlink="http://www.w3.org/1999/xlink">
    <!-- Generator: sketchtool 42 (36781) - http://www.bohemiancoding.com/sketch -->
    <title>E24CD36D-F2E6-480B-BA09-6D3A07E7695D</title>
    <desc>Created with sketchtool.</desc>
    <defs></defs>
    <g id="desktop" stroke="none" stroke-width="1" fill="none" fill-rule="evenodd">
        <g id="Homepage-Desktop" transform="translate(-379.000000, -4774.000000)" fill="#39D8FF">
            <g id="at-a-glance" transform="translate(170.000000, 4511.000000)">
                <path d="M303.79856,296.701094 C303.829742,297.177222 304.224917,297.541814 304.695048,297.541814 C304.714837,297.541814 304.734626,297.541214 304.754414,297.540015 C305.250331,297.507633 305.625717,297.079478 305.593335,296.584161 C305.238938,291.165655 303.015407,287.526933 302.921261,287.37462 C302.683797,286.992638 302.199273,286.845122 301.787908,287.028617 C292.306123,291.293981 280.008345,288.223135 279.836843,288.173363 C279.366112,288.018652 278.860601,288.274706 278.70409,288.743638 C278.54698,289.215568 278.801235,289.724678 279.273165,289.881788 C279.3877,289.920166 291.659692,293.106746 301.757326,288.998492 C302.368977,290.221794 303.558098,293.022794 303.79856,296.701094 M313.915383,325.258586 L300.819461,320.950047 L300.819461,316.622318 C305.471005,313.249844 308.504673,307.776169 308.504673,301.604494 C308.504673,301.107977 308.102303,300.705007 307.605186,300.705007 C307.10867,300.705007 306.7057,301.107977 306.7057,301.604494 C306.7057,310.836222 299.194989,318.347533 289.962661,318.347533 C282.168912,318.347533 275.470137,313.059153 273.672363,305.487276 C273.653774,305.408721 273.622592,305.337362 273.586013,305.269601 C273.586612,305.25281 273.587212,305.23542 273.587812,305.21803 C273.840867,296.669312 274.08193,288.415625 272.457457,281.501573 C274.646207,275.253141 281.160288,271.528069 289.962661,271.528069 C296.040191,271.528069 301.411323,273.478155 304.698047,276.879413 C307.225603,279.49392 308.440509,282.778844 308.308585,286.644237 C308.222234,289.189183 308.156272,291.233416 308.099904,292.962828 L308.008756,295.729648 C307.992565,296.226165 308.381743,296.641728 308.87766,296.658518 C308.887854,296.659118 308.898048,296.659118 308.908242,296.659118 C309.391566,296.659118 309.790938,296.275937 309.807129,295.789015 L309.897677,293.020995 C309.954045,291.292182 310.020008,289.248549 310.106958,286.704802 C310.253274,282.396262 308.830287,278.566249 305.992108,275.629127 C302.367178,271.878868 296.525314,269.729096 289.962661,269.729096 C281.374365,269.729096 274.751147,273.064991 271.691095,278.77553 C270.6321,275.578156 269.068193,272.73398 266.774502,270.371329 C262.253084,265.713789 255.37861,263.450081 245.759503,263.450081 C215.058234,263.450081 214.324853,290.671537 213.676623,314.688422 C213.352209,326.718752 213.046383,338.081664 209.115628,345.061678 C208.872167,345.49523 209.025679,346.043317 209.458632,346.286778 C209.890985,346.532638 210.440272,346.377926 210.683732,345.944974 C214.832763,338.575782 215.144585,326.996394 215.474996,314.736995 C216.131022,290.407088 216.809834,265.249054 245.759503,265.249054 C254.866502,265.249054 261.318818,267.334063 265.48344,271.624613 C268.065565,274.284095 269.652859,277.670961 270.612311,281.551345 C270.620106,281.637696 270.643493,281.720448 270.675275,281.799003 C272.281158,288.518167 272.040096,296.692699 271.789439,305.164661 C271.303116,321.602474 270.800004,338.599768 283.734618,347.832696 C283.892927,347.945431 284.075823,348 284.25632,348 C284.536959,348 284.814001,347.868675 284.989101,347.622815 C285.278136,347.218646 285.18399,346.657367 284.779821,346.368332 C273.856458,338.571584 273.146464,324.44605 273.457686,310.074657 C276.564512,316.166578 282.850123,320.146505 289.962661,320.146505 C293.251183,320.146505 296.340019,319.281799 299.020489,317.77486 L299.020489,323.857187 C299.020489,324.353703 299.422859,324.756673 299.919975,324.756673 C300.416491,324.756673 300.819461,324.353703 300.819461,323.857187 L300.819461,322.843765 L313.352904,326.96761 C313.446451,326.998193 313.541197,327.012585 313.634144,327.012585 C314.011928,327.012585 314.363927,326.772122 314.488656,326.394338 C314.643367,325.921808 314.387314,325.413898 313.915383,325.258586 M301.4527,327.717182 C298.970117,330.742455 293.30935,333.417527 286.259176,332.566613 C285.766257,332.510845 285.318313,332.858047 285.258947,333.351565 C285.198981,333.844483 285.55098,334.292428 286.043899,334.352393 C287.05792,334.474723 288.036561,334.531691 288.979223,334.531691 C295.711578,334.531691 300.571803,331.62635 302.843905,328.857731 C303.158726,328.47335 303.102957,327.907274 302.719177,327.592454 C302.334796,327.275834 301.76752,327.332802 301.4527,327.717182 M261.467533,285.109113 C261.288835,284.645578 260.767733,284.41411 260.304797,284.593408 C257.627326,285.624819 254.808935,286.455344 251.92818,287.061598 C243.896367,288.750234 235.961098,288.623107 228.978685,286.694608 C228.499559,286.565681 228.004242,286.843923 227.872317,287.322449 C227.739793,287.801576 228.021032,288.296893 228.499559,288.429417 C232.384141,289.502205 236.546364,290.040097 240.851306,290.040097 C244.589571,290.040097 248.435175,289.634729 252.298169,288.821593 C255.27307,288.19615 258.185007,287.33804 260.951827,286.27125 C261.415363,286.093151 261.646231,285.572049 261.467533,285.109113 M237.915382,302.97771 C239.349763,302.97771 240.512499,301.814374 240.512499,300.379993 C240.512499,298.945612 239.349763,297.783476 237.915382,297.783476 C236.481001,297.783476 235.318265,298.945612 235.318265,300.379993 C235.318265,301.814374 236.481001,302.97771 237.915382,302.97771 M254.438347,300.379993 C254.438347,298.945612 253.275611,297.783476 251.84063,297.783476 C250.406849,297.783476 249.244113,298.945612 249.244113,300.379993 C249.244113,301.814374 250.406849,302.97771 251.84063,302.97771 C253.275611,302.97771 254.438347,301.814374 254.438347,300.379993 M234.500932,308.723029 C234.29345,309.174571 234.491337,309.708266 234.94288,309.915748 C238.069494,311.351328 241.412585,312.079312 244.879206,312.079312 C248.344027,312.079312 251.686518,311.351928 254.813133,309.916947 C255.264675,309.709465 255.463162,309.17577 255.25568,308.724228 C255.048199,308.273286 254.514503,308.075399 254.062961,308.281681 C251.173211,309.607524 248.083776,310.280339 244.879206,310.280339 C241.673436,310.280339 238.582801,309.606924 235.693651,308.281081 C235.241509,308.0736 234.707814,308.271487 234.500932,308.723029 M267.821505,299.848696 C267.324388,299.848696 266.922018,300.251666 266.922018,300.748183 C266.922018,309.391647 261.919075,316.885568 254.658421,320.496106 C254.656023,320.416351 254.654224,320.367779 254.654224,320.360583 C254.638632,319.864666 254.225468,319.462296 253.727153,319.48988 C253.230637,319.504872 252.840259,319.920435 252.855851,320.416951 C252.858249,320.487711 252.867844,320.798333 252.886433,321.279858 C250.402052,322.251903 247.702993,322.792195 244.878606,322.792195 C232.723547,322.792195 222.834594,312.903242 222.834594,300.748183 C222.834594,300.251666 222.432224,299.848696 221.935108,299.848696 C221.437991,299.848696 221.035621,300.251666 221.035621,300.748183 C221.035621,310.462036 226.878085,318.832056 235.230715,322.544536 C235.227117,322.588311 235.223519,322.631486 235.226518,322.676461 C235.230116,322.725633 235.570121,327.669809 234.981258,331.847624 C234.912297,332.339943 235.254701,332.794483 235.74702,332.864043 C235.788996,332.86944 235.831572,332.872438 235.873548,332.872438 C236.314296,332.872438 236.699277,332.548024 236.76284,332.098281 C237.249163,328.644253 237.137626,324.825034 237.06147,323.268922 C239.51227,324.121636 242.141169,324.591167 244.878606,324.591167 C247.716185,324.591167 250.439231,324.090453 252.965588,323.175976 C253.139489,326.944224 253.531665,333.53506 254.248855,336.403222 C254.351397,336.812189 254.717787,337.085033 255.120757,337.085033 C255.192716,337.085033 255.266474,337.076038 255.339632,337.058048 C255.821757,336.937517 256.11439,336.449396 255.993859,335.967271 C255.280266,333.111102 254.891088,326.000363 254.735777,322.449191 C262.976271,318.691137 268.720991,310.380482 268.720991,300.748183 C268.720991,300.251666 268.318621,299.848696 267.821505,299.848696 M284.383447,299.385761 C285.384275,299.385761 286.196212,298.573824 286.196212,297.572396 C286.196212,296.570968 285.384275,295.759631 284.383447,295.759631 C283.382019,295.759631 282.570083,296.570968 282.570083,297.572396 C282.570083,298.573824 283.382019,299.385761 284.383447,299.385761 M297.355839,297.572396 C297.355839,296.570968 296.543903,295.759631 295.542475,295.759631 C294.541047,295.759631 293.72971,296.570968 293.72971,297.572396 C293.72971,298.573824 294.541047,299.385761 295.542475,299.385761 C296.543903,299.385761 297.355839,298.573824 297.355839,297.572396 M295.986821,306.393359 C296.04139,306.384964 296.096558,306.377168 296.151727,306.368773 C295.635422,307.715004 294.295187,309.751441 290.883735,309.970916 C287.51246,310.178997 285.453236,308.129368 284.411031,306.63742 C290.036419,307.294644 292.815232,306.873685 295.986821,306.393359 M281.911059,305.856066 C281.936244,305.917231 284.415829,311.78548 290.395014,311.78548 C290.592901,311.78548 290.794386,311.779483 290.999469,311.766291 C296.220687,311.429883 298.025657,307.44156 298.250528,305.379938 C298.280511,305.104695 298.181568,304.830052 297.982481,304.636962 C297.783395,304.444472 297.507553,304.353324 297.23171,304.391702 C296.710608,304.464261 296.209894,304.539818 295.717575,304.614775 C292.365489,305.120886 289.470342,305.559235 282.869911,304.62377 C282.549694,304.579395 282.231276,304.708321 282.033389,304.961976 C281.835502,305.216231 281.788729,305.558036 281.911059,305.856066" id="students"></path>
            </g>
        </g>
    </g>
</svg>