<?xml version="1.0" encoding="UTF-8"?>
<svg width="123px" height="46px" viewBox="0 0 123 46" version="1.1" xmlns="http://www.w3.org/2000/svg" xmlns:xlink="http://www.w3.org/1999/xlink">
    <!-- Generator: sketchtool 42 (36781) - http://www.bohemiancoding.com/sketch -->
    <title>A29FE1CB-D57C-4294-ACBC-94898204C891</title>
    <desc>Created with sketchtool.</desc>
    <defs></defs>
    <g id="desktop" stroke="none" stroke-width="1" fill="none" fill-rule="evenodd">
        <g id="Homepage-Desktop" transform="translate(-347.000000, -5321.000000)">
            <g id="at-a-glance" transform="translate(170.000000, 4511.000000)">
                <g id="workshops" transform="translate(177.000000, 810.000000)">
                    <path d="M5.51724138,3.05163697 L1.10344828,3.05163697 C0.493609195,3.05163697 0,2.5546958 0,1.94239328 C0,1.33009076 0.493609195,0.83314958 1.10344828,0.83314958 L5.51724138,0.83314958 C6.12708046,0.83314958 6.62068966,1.33009076 6.62068966,1.94239328 C6.62068966,2.5546958 6.12708046,3.05163697 5.51724138,3.05163697 M24.6436782,3.05163697 L20.2298851,3.05163697 C19.620046,3.05163697 19.1264368,2.5546958 19.1264368,1.94239328 C19.1264368,1.33009076 19.620046,0.83314958 20.2298851,0.83314958 L24.6436782,0.83314958 C25.2535172,0.83314958 25.7471264,1.33009076 25.7471264,1.94239328 C25.7471264,2.5546958 25.2535172,3.05163697 24.6436782,3.05163697 M43.7701149,3.05163697 L39.3563218,3.05163697 C38.7464828,3.05163697 38.2528736,2.5546958 38.2528736,1.94239328 C38.2528736,1.33009076 38.7464828,0.83314958 39.3563218,0.83314958 L43.7701149,0.83314958 C44.379954,0.83314958 44.8735632,1.33009076 44.8735632,1.94239328 C44.8735632,2.5546958 44.379954,3.05163697 43.7701149,3.05163697 M62.8965517,3.05163697 L58.4827586,3.05163697 C57.8729195,3.05163697 57.3793103,2.5546958 57.3793103,1.94239328 C57.3793103,1.33009076 57.8729195,0.83314958 58.4827586,0.83314958 L62.8965517,0.83314958 C63.5056552,0.83314958 64,1.33009076 64,1.94239328 C64,2.5546958 63.5056552,3.05163697 62.8965517,3.05163697 M82.0229885,3.05163697 L77.6091954,3.05163697 C76.9993563,3.05163697 76.5057471,2.5546958 76.5057471,1.94239328 C76.5057471,1.33009076 76.9993563,0.83314958 77.6091954,0.83314958 L82.0229885,0.83314958 C82.632092,0.83314958 83.1264368,1.33009076 83.1264368,1.94239328 C83.1264368,2.5546958 82.632092,3.05163697 82.0229885,3.05163697 M101.149425,3.05163697 L96.7356322,3.05163697 C96.1257931,3.05163697 95.6321839,2.5546958 95.6321839,1.94239328 C95.6321839,1.33009076 96.1257931,0.83314958 96.7356322,0.83314958 L101.149425,0.83314958 C101.758529,0.83314958 102.252874,1.33009076 102.252874,1.94239328 C102.252874,2.5546958 101.758529,3.05163697 101.149425,3.05163697 M120.275862,3.05163697 L115.862069,3.05163697 C115.25223,3.05163697 114.758621,2.5546958 114.758621,1.94239328 C114.758621,1.33009076 115.25223,0.83314958 115.862069,0.83314958 L120.275862,0.83314958 C120.884966,0.83314958 121.37931,1.33009076 121.37931,1.94239328 C121.37931,2.5546958 120.884966,3.05163697 120.275862,3.05163697" id="Fill-7" fill="#3F6171"></path>
                    <path d="M5.51724138,45.051637 L1.10344828,45.051637 C0.493609195,45.051637 0,44.5546958 0,43.9423933 C0,43.3300908 0.493609195,42.8331496 1.10344828,42.8331496 L5.51724138,42.8331496 C6.12708046,42.8331496 6.62068966,43.3300908 6.62068966,43.9423933 C6.62068966,44.5546958 6.12708046,45.051637 5.51724138,45.051637 M24.6436782,45.051637 L20.2298851,45.051637 C19.620046,45.051637 19.1264368,44.5546958 19.1264368,43.9423933 C19.1264368,43.3300908 19.620046,42.8331496 20.2298851,42.8331496 L24.6436782,42.8331496 C25.2535172,42.8331496 25.7471264,43.3300908 25.7471264,43.9423933 C25.7471264,44.5546958 25.2535172,45.051637 24.6436782,45.051637 M43.7701149,45.051637 L39.3563218,45.051637 C38.7464828,45.051637 38.2528736,44.5546958 38.2528736,43.9423933 C38.2528736,43.3300908 38.7464828,42.8331496 39.3563218,42.8331496 L43.7701149,42.8331496 C44.379954,42.8331496 44.8735632,43.3300908 44.8735632,43.9423933 C44.8735632,44.5546958 44.379954,45.051637 43.7701149,45.051637 M62.8965517,45.051637 L58.4827586,45.051637 C57.8729195,45.051637 57.3793103,44.5546958 57.3793103,43.9423933 C57.3793103,43.3300908 57.8729195,42.8331496 58.4827586,42.8331496 L62.8965517,42.8331496 C63.5056552,42.8331496 64,43.3300908 64,43.9423933 C64,44.5546958 63.5056552,45.051637 62.8965517,45.051637 M82.0229885,45.051637 L77.6091954,45.051637 C76.9993563,45.051637 76.5057471,44.5546958 76.5057471,43.9423933 C76.5057471,43.3300908 76.9993563,42.8331496 77.6091954,42.8331496 L82.0229885,42.8331496 C82.632092,42.8331496 83.1264368,43.3300908 83.1264368,43.9423933 C83.1264368,44.5546958 82.632092,45.051637 82.0229885,45.051637 M101.149425,45.051637 L96.7356322,45.051637 C96.1257931,45.051637 95.6321839,44.5546958 95.6321839,43.9423933 C95.6321839,43.3300908 96.1257931,42.8331496 96.7356322,42.8331496 L101.149425,42.8331496 C101.758529,42.8331496 102.252874,43.3300908 102.252874,43.9423933 C102.252874,44.5546958 101.758529,45.051637 101.149425,45.051637 M120.275862,45.051637 L115.862069,45.051637 C115.25223,45.051637 114.758621,44.5546958 114.758621,43.9423933 C114.758621,43.3300908 115.25223,42.8331496 115.862069,42.8331496 L120.275862,42.8331496 C120.884966,42.8331496 121.37931,43.3300908 121.37931,43.9423933 C121.37931,44.5546958 120.884966,45.051637 120.275862,45.051637" id="Fill-7-Copy" fill="#3F6171"></path>
                    <path d="M122.401913,21.6509109 C121.91566,21.282642 121.22343,21.379516 120.856349,21.8683227 C111.062878,34.9159866 93.7152,43.3100034 86.3802115,41.0264403 C84.0607632,40.3046924 82.871246,38.5949782 82.743246,35.8004235 C82.295246,25.9924908 92.427108,2.22805378 92.5300966,1.98919664 C92.7706483,1.42644034 92.5124414,0.774205042 91.9526253,0.530910924 C91.3928092,0.288356303 90.7447172,0.547919328 90.5026943,1.11141513 C90.1635678,1.90341513 83.7437057,16.969163 81.3860046,28.2797513 C79.9919816,30.2719529 68.8655448,42.2207261 61.5739586,42.2207261 C58.4512,42.2207261 56.0361195,41.092995 54.5913379,38.9580706 C52.4638897,35.8144739 52.5521655,30.6749782 54.8348322,24.8566252 C57.5449011,17.9482555 67.2096368,7.32613782 75.6083494,3.98287731 C77.4525793,3.24781849 79.1357057,2.90691092 80.6525793,2.93575126 C81.4169011,2.9823395 82.1716598,3.09622185 82.9139126,3.28701176 C83.2000736,3.38018824 83.4774069,3.48889412 83.7466483,3.61682689 C84.2983724,3.8793479 84.9560276,3.64123025 85.2157057,3.0873479 C85.2958897,2.91874286 85.3238437,2.73978487 85.3157517,2.56452437 C85.3334069,2.08976807 85.0501885,1.63793613 84.5801195,1.47376807 C84.1608092,1.3273479 83.7378207,1.20902857 83.3148322,1.10475966 C82.5659586,0.885868908 81.7795678,0.760154622 80.9593379,0.725398319 C71.8242575,0.0398857143 61.9042575,7.96580168 50.6240736,16.9802555 C45.4275678,21.1317849 40.0559816,25.424558 34.3908782,29.1656672 C28.2203954,33.2432471 22.7362575,34.5957849 18.0944184,33.1796504 C12.0497287,31.3383059 9.42646437,25.3003227 9.38453333,25.2012303 C9.1483954,24.636995 8.50177471,24.3707765 7.94048736,24.6088941 C7.37846437,24.8455328 7.11437241,25.4955496 7.34977471,26.0605244 C7.46968276,26.3481882 10.3695448,33.1293647 17.4279356,35.2946084 C18.8381425,35.7272134 20.3057287,35.9431462 21.8270161,35.9431462 C26.0289471,35.9431462 30.6435678,34.2970286 35.6039356,31.0203227 C41.3506943,27.2237513 46.7634759,22.8984403 51.9967632,18.7165916 C55.5403034,15.8850622 58.9433379,13.1674151 62.2095448,10.8054655 C57.8766713,15.130037 54.3338667,20.0868773 52.7816828,24.0417008 C50.1893149,30.6505748 50.1841655,36.3912807 52.7669701,40.2063395 C54.6420966,42.9757513 57.6868782,44.4392134 61.5739586,44.4392134 C68.201269,44.4392134 76.5139126,36.8201882 80.7048092,32.3713815 C80.5562115,33.6573647 80.4907402,34.8509109 80.539292,35.9017345 C80.7548322,40.6211966 83.4796138,42.4462723 85.7277057,43.1458353 C86.7620046,43.467516 87.9176828,43.6213311 89.1719356,43.6213311 C98.793269,43.6213311 114.081177,34.5772975 122.618189,23.2045916 C122.985269,22.7150454 122.888166,22.0199193 122.401913,21.6509109" id="Fill-9" fill="#39D8FF"></path>
                </g>
            </g>
        </g>
    </g>
</svg>