<?xml version="1.0" encoding="UTF-8"?>
<svg width="122px" height="97px" viewBox="0 0 122 97" version="1.1" xmlns="http://www.w3.org/2000/svg" xmlns:xlink="http://www.w3.org/1999/xlink">
    <!-- Generator: sketchtool 42 (36781) - http://www.bohemiancoding.com/sketch -->
    <title>2230E537-1C21-49C7-AFD1-12B0AE8EDE4A</title>
    <desc>Created with sketchtool.</desc>
    <defs></defs>
    <g id="desktop" stroke="none" stroke-width="1" fill="none" fill-rule="evenodd">
        <g id="Homepage-Desktop" transform="translate(-487.000000, -13118.000000)" fill="#39D8FF">
            <g id="core-programs" transform="translate(71.000000, 7810.000000)">
                <g id="workshops" transform="translate(147.000000, 4590.000000)">
                    <g id="numbers" transform="translate(0.000000, 685.000000)">
                        <path d="M388.335027,71.359981 L387.684075,70.7090289 C387.327905,70.352859 386.751104,70.352859 386.394935,70.7090289 L385.221276,71.8820798 L384.306539,70.9673432 C384.256092,70.916896 384.194096,70.8907606 384.135748,70.8542927 L384.135748,70.7278707 L385.795037,65.4120658 L386.676345,65.4120658 L388.335027,70.7278707 L388.335027,71.359981 Z M388.334419,118.468612 L384.13514,118.468612 L384.135748,73.3748327 L384.576402,73.8160944 C384.932572,74.1722643 385.50998,74.1722643 385.86615,73.8160944 L387.039201,72.6424357 L388.335027,73.9382619 L388.334419,118.468612 Z M384.13514,122.717123 L388.334419,122.717123 L388.334419,120.292008 L384.13514,120.292008 L384.13514,122.717123 Z M388.334419,126.899384 C388.334419,127.548513 387.806242,128.07669 387.157114,128.07669 L385.312446,128.07669 C384.663317,128.07669 384.13514,127.548513 384.13514,126.899384 L384.13514,124.540518 L388.334419,124.540518 L388.334419,126.899384 Z M390.117092,70.3169989 L387.106059,60.6700226 C386.98693,60.2895408 386.634407,60.0300109 386.235691,60.0300109 C385.836976,60.0300109 385.484452,60.2895408 385.365324,60.6700226 L382.353683,70.3169989 C382.326332,70.4051297 382.312353,70.4969073 382.312353,70.5886848 L382.311745,119.379702 L382.311745,119.38031 L382.311745,119.380918 L382.311745,123.628821 L382.311745,126.899384 C382.311745,128.554419 383.658018,129.900085 385.312446,129.900085 L387.157114,129.900085 C388.811541,129.900085 390.157814,128.554419 390.157814,126.899384 L390.158422,73.5608191 L390.158422,70.5886848 C390.158422,70.4969073 390.144443,70.4057375 390.117092,70.3169989 L390.117092,70.3169989 Z M367.746464,122.764531 C366.997048,122.764531 366.388642,123.37233 366.388642,124.122961 C366.388642,124.872984 366.997048,125.480783 367.746464,125.480783 C368.496487,125.480783 369.104893,124.872984 369.104893,124.122961 C369.104893,123.37233 368.496487,122.764531 367.746464,122.764531 L367.746464,122.764531 Z M348.95516,53.9076575 L286.949998,53.9076575 L286.949998,34.8246108 L344.324344,34.8233952 C346.877705,34.8233952 348.95516,36.9008502 348.95516,39.4536035 L348.95516,53.9076575 Z M286.949998,63.1777988 L348.95516,63.1777988 L348.95516,55.7310527 L286.949998,55.7310527 L286.949998,63.1777988 Z M286.949998,72.448548 L348.95516,72.448548 L348.95516,65.0011941 L286.949998,65.0011941 L286.949998,72.448548 Z M286.949998,81.7192971 L348.95516,81.7192971 L348.95516,74.2719432 L286.949998,74.2719432 L286.949998,81.7192971 Z M286.949998,90.9900462 L348.95516,90.9900462 L348.95516,83.5426923 L286.949998,83.5426923 L286.949998,90.9900462 Z M286.949998,100.260795 L348.95516,100.260795 L348.95516,92.8134415 L286.949998,92.8134415 L286.949998,100.260795 Z M286.949998,109.530937 L348.95516,109.530937 L348.95516,102.084191 L286.949998,102.084191 L286.949998,109.530937 Z M286.949998,118.801686 L348.95516,118.801686 L348.95516,111.354332 L286.949998,111.354332 L286.949998,118.801686 Z M348.95516,123.441619 C348.95516,125.99498 346.877705,128.072435 344.324344,128.072435 L286.949998,128.073651 L286.949998,120.625081 L348.95516,120.625081 L348.95516,123.441619 Z M285.126603,53.9076575 L275.740979,53.9076575 C276.027253,53.3819119 276.189535,52.7789758 276.189535,52.1389641 C276.189535,50.0906835 274.522951,48.4241002 272.474671,48.4241002 L271.279739,48.4241002 L271.279739,46.0682736 L272.474671,46.0682736 C274.522951,46.0682736 276.189535,44.4016904 276.189535,42.3521941 C276.189535,40.3033057 274.522951,38.6367224 272.474671,38.6367224 L271.352067,38.6367224 C271.739843,36.4729601 273.636174,34.8246108 275.909947,34.8246108 L285.126603,34.8246108 L285.126603,53.9076575 Z M285.126603,63.1777988 L275.967688,63.1777988 C276.108698,62.7863766 276.189535,62.3651724 276.189535,61.9257341 C276.189535,59.8768457 274.522951,58.2102624 272.498375,58.2108702 L271.279739,58.1786569 L271.279739,55.8544358 L272.474671,55.8544358 C272.804098,55.8544358 273.121976,55.8070275 273.426483,55.7261903 C273.442894,55.7274059 273.457481,55.7310527 273.473891,55.7310527 L285.126603,55.7310527 L285.126603,63.1777988 Z M285.126603,72.448548 L276.115991,72.448548 C276.163399,72.210291 276.189535,71.9647404 276.189535,71.7125041 C276.189535,69.6636157 274.522951,67.9970324 272.474671,67.9970324 L271.279739,67.9970324 L271.279739,65.6412058 L272.474671,65.6412058 C273.339568,65.6412058 274.13396,65.3415612 274.766071,64.8437743 C274.91255,64.9428454 275.088204,65.0011941 275.277837,65.0011941 L285.126603,65.0011941 L285.126603,72.448548 Z M285.126603,81.7192971 L276.178594,81.7192971 C276.182849,81.6457535 276.189535,81.5734255 276.189535,81.4992741 C276.189535,79.4503856 274.522951,77.7831946 272.474671,77.7831946 L271.279739,77.7831946 L271.279739,75.427368 L272.474671,75.427368 C273.536495,75.427368 274.492562,74.9775971 275.170865,74.2610028 C275.206117,74.2652574 275.241369,74.2719432 275.277837,74.2719432 L285.126603,74.2719432 L285.126603,81.7192971 Z M285.126603,90.9900462 L276.174948,90.9900462 C276.023606,89.079128 274.423273,87.5699646 272.474671,87.5699646 L271.279739,87.5699646 L271.279739,85.214138 L272.474671,85.214138 C273.768066,85.214138 274.908296,84.5479909 275.573835,83.5426923 L285.126603,83.5426923 L285.126603,90.9900462 Z M285.126603,100.260795 L276.097757,100.260795 C275.726392,98.6008979 274.243972,97.3561268 272.474671,97.3561268 L271.279739,97.3561268 L271.279739,95.0009079 L272.474671,95.0009079 C273.978364,95.0009079 275.272975,94.1013663 275.857069,92.8134415 L285.126603,92.8134415 L285.126603,100.260795 Z M285.126603,109.530937 L275.940337,109.530937 C275.404259,108.136647 274.054947,107.142897 272.474671,107.142897 L271.279739,107.142897 L271.279739,104.787678 L272.474671,104.787678 C274.171644,104.787678 275.603617,103.641978 276.046094,102.084191 L285.126603,102.084191 L285.126603,109.530937 Z M285.126603,118.801686 L275.696002,118.801686 C275.054167,117.68516 273.85255,116.929667 272.474671,116.929667 L271.279739,116.929667 L271.279739,114.574448 L272.474671,114.574448 C274.354591,114.574448 275.908732,113.169218 276.153067,111.354332 L285.126603,111.354332 L285.126603,118.801686 Z M285.126603,128.073651 L275.910555,128.073651 C273.67021,128.073651 271.796368,126.474533 271.370909,124.356963 L272.474671,124.36061 C274.522951,124.36061 276.189535,122.694027 276.189535,120.645138 C276.189535,120.638453 276.188319,120.631159 276.188319,120.625081 L285.126603,120.625081 L285.126603,128.073651 Z M344.324344,33 L275.909947,33.0012156 C272.351896,33.0012156 269.456344,35.8961594 269.456344,39.4548191 C269.456344,39.4706219 269.456952,39.4864246 269.45756,39.5016196 C269.456952,39.5168145 269.456344,39.5326173 269.456344,39.5484201 C269.456344,40.0516771 269.864784,40.4601177 270.368042,40.4601177 L272.474671,40.4601177 C273.517653,40.4601177 274.366139,41.3092121 274.366139,42.3521941 C274.366139,43.395784 273.517653,44.2448784 272.474671,44.2448784 L270.368042,44.2448784 C269.864784,44.2448784 269.456344,44.6533189 269.456344,45.156576 L269.456344,49.3357978 C269.456344,49.8390549 269.864784,50.2474955 270.368042,50.2474955 L272.474671,50.2474955 C273.517653,50.2474955 274.366139,51.095982 274.366139,52.1389641 C274.366139,53.182554 273.517653,54.0310406 272.474671,54.0310406 L270.368042,54.0310406 C269.864784,54.0310406 269.456344,54.4394811 269.456344,54.9427382 L269.456344,59.0672582 C269.456344,59.5620061 269.850805,59.966192 270.344337,59.978348 L272.474671,60.0336577 C273.517653,60.0336577 274.366139,60.882752 274.366139,61.9257341 C274.366139,62.9687162 273.517653,63.8178105 272.474671,63.8178105 L270.368042,63.8178105 C269.864784,63.8178105 269.456344,64.2262511 269.456344,64.7295082 L269.456344,68.90873 C269.456344,69.4119871 269.864784,69.8204276 270.368042,69.8204276 L272.474671,69.8204276 C273.517653,69.8204276 274.366139,70.6689142 274.366139,71.7125041 C274.366139,72.7554862 273.517653,73.6039727 272.474671,73.6039727 L270.368042,73.6039727 C269.864784,73.6039727 269.456344,74.0124133 269.456344,74.5156704 L269.456344,78.6948922 C269.456344,79.1981493 269.864784,79.6065898 270.368042,79.6065898 L272.474671,79.6065898 C273.517653,79.6065898 274.366139,80.4556842 274.366139,81.4992741 C274.366139,82.5416483 273.517653,83.3907427 272.474671,83.3907427 L270.368042,83.3907427 C269.864784,83.3907427 269.456344,83.7991833 269.456344,84.3024403 L269.456344,88.4816622 C269.456344,88.9849193 269.864784,89.3933598 270.368042,89.3933598 L272.474671,89.3933598 C273.517653,89.3933598 274.366139,90.2418464 274.366139,91.2854363 C274.366139,92.3290261 273.517653,93.1775127 272.474671,93.1775127 L270.368042,93.1775127 C269.864784,93.1775127 269.456344,93.5859532 269.456344,94.0892103 L269.456344,98.2678244 C269.456344,98.7716893 269.864784,99.179522 270.368042,99.179522 L272.474671,99.179522 C273.517653,99.179522 274.366139,100.028616 274.366139,101.072206 C274.366139,102.115796 273.517653,102.964283 272.474671,102.964283 L270.368042,102.964283 C269.864784,102.964283 269.456344,103.372723 269.456344,103.87598 L269.456344,108.054594 C269.456344,108.557851 269.864784,108.966292 270.368042,108.966292 L272.474671,108.966292 C273.517653,108.966292 274.366139,109.815386 274.366139,110.858368 C274.366139,111.901958 273.517653,112.751053 272.474671,112.751053 L270.368042,112.751053 C269.864784,112.751053 269.456344,113.158885 269.456344,113.66275 L269.456344,117.841364 C269.456344,118.344621 269.864784,118.753062 270.368042,118.753062 L272.474671,118.753062 C273.517653,118.753062 274.366139,119.601549 274.366139,120.645138 C274.366139,121.688728 273.517653,122.537215 272.47771,122.537215 L270.371081,122.530529 L270.368042,122.530529 C270.127353,122.530529 269.895782,122.626561 269.724991,122.796745 C269.552376,122.967536 269.456344,123.200323 269.456344,123.442227 C269.456344,127.001494 272.351896,129.897046 275.910555,129.897046 L344.324344,129.89583 C347.883004,129.89583 350.778556,127.000279 350.778556,123.441619 L350.778556,39.4536035 C350.778556,35.8949438 347.883004,33 344.324344,33 L344.324344,33 Z M373.256156,125.973099 C373.256156,127.131563 372.314677,128.073651 371.156821,128.073651 L364.33793,128.073651 C363.179466,128.073651 362.237379,127.131563 362.237379,125.973099 L362.237379,125.034659 L364.157414,125.034659 C364.660671,125.034659 365.069112,124.626218 365.069112,124.122961 C365.069112,123.619096 364.660671,123.211263 364.157414,123.211263 L362.237379,123.211263 L362.237379,120.089611 L365.373011,120.089611 C365.876268,120.089611 366.284709,119.68117 366.284709,119.177913 C366.284709,118.674656 365.876268,118.266215 365.373011,118.266215 L362.237379,118.266215 L362.237379,115.144563 L365.373011,115.144563 C365.876268,115.144563 366.284709,114.736122 366.284709,114.232865 C366.284709,113.729608 365.876268,113.321168 365.373011,113.321168 L362.237379,113.321168 L362.237379,110.199515 L365.373011,110.199515 C365.876268,110.199515 366.284709,109.791074 366.284709,109.287817 C366.284709,108.78456 365.876268,108.37612 365.373011,108.37612 L362.237379,108.37612 L362.237379,105.255075 L365.373011,105.255075 C365.876268,105.255075 366.284709,104.846634 366.284709,104.343377 C366.284709,103.839512 365.876268,103.43168 365.373011,103.43168 L362.237379,103.43168 L362.237379,100.309419 L365.373011,100.309419 C365.876268,100.309419 366.284709,99.9009787 366.284709,99.3977216 C366.284709,98.8944646 365.876268,98.486024 365.373011,98.486024 L362.237379,98.486024 L362.237379,95.3643714 L365.373011,95.3643714 C365.876268,95.3643714 366.284709,94.9559309 366.284709,94.4526738 C366.284709,93.9494167 365.876268,93.5409762 365.373011,93.5409762 L362.237379,93.5409762 L362.237379,90.4193235 L365.373011,90.4193235 C365.876268,90.4193235 366.284709,90.0114908 366.284709,89.5076259 C366.284709,89.0043688 365.876268,88.5959283 365.373011,88.5959283 L362.237379,88.5959283 L362.237379,85.4748835 L365.373011,85.4748835 C365.876268,85.4748835 366.284709,85.0664429 366.284709,84.5631859 C366.284709,84.0599288 365.876268,83.6514882 365.373011,83.6514882 L362.237379,83.6514882 L362.237379,80.5298356 L365.373011,80.5298356 C365.876268,80.5298356 366.284709,80.1213951 366.284709,79.618138 C366.284709,79.1148809 365.876268,78.7064404 365.373011,78.7064404 L362.237379,78.7064404 L362.237379,75.5847878 L365.373011,75.5847878 C365.876268,75.5847878 366.284709,75.1763472 366.284709,74.6730901 C366.284709,74.1698331 365.876268,73.7613925 365.373011,73.7613925 L362.237379,73.7613925 L362.237379,70.6397399 L365.373011,70.6397399 C365.876268,70.6397399 366.284709,70.2319072 366.284709,69.7280423 C366.284709,69.2247852 365.876268,68.8163447 365.373011,68.8163447 L362.237379,68.8163447 L362.237379,65.6952998 L365.373011,65.6952998 C365.876268,65.6952998 366.284709,65.2868593 366.284709,64.7836022 C366.284709,64.2803451 365.876268,63.8719046 365.373011,63.8719046 L362.237379,63.8719046 L362.237379,60.750252 L365.373011,60.750252 C365.876268,60.750252 366.284709,60.3418114 366.284709,59.8385544 C366.284709,59.3352973 365.876268,58.9268567 365.373011,58.9268567 L362.237379,58.9268567 L362.237379,55.8052041 L365.373011,55.8052041 C365.876268,55.8052041 366.284709,55.3967636 366.284709,54.8935065 C366.284709,54.3902494 365.876268,53.9818089 365.373011,53.9818089 L362.237379,53.9818089 L362.237379,52.4343541 C362.237379,51.277106 363.179466,50.3350184 364.337322,50.3350184 L371.156821,50.3350184 C372.314677,50.3350184 373.256156,51.277106 373.256156,52.4343541 L373.256156,125.973099 Z M371.156821,48.5116232 L364.337322,48.5116232 C362.174168,48.5116232 360.413984,50.2718074 360.413984,52.4343541 L360.413984,125.973099 C360.413984,128.136862 362.174168,129.897046 364.33793,129.897046 L371.156821,129.897046 C373.319975,129.897046 375.079552,128.136862 375.079552,125.973099 L375.079552,52.4343541 C375.079552,50.2718074 373.319975,48.5116232 371.156821,48.5116232 L371.156821,48.5116232 Z" id="workshops"></path>
                    </g>
                </g>
            </g>
        </g>
    </g>
</svg>