<svg fill="none" height="109" viewBox="0 0 149 109" width="149" xmlns="http://www.w3.org/2000/svg" xmlns:xlink="http://www.w3.org/1999/xlink"><clipPath id="a"><path d="m19 17h52v52h-52z"/></clipPath><path d="m0 0h149v109h-149z" fill="#e2b29f"/><g clip-path="url(#a)"><path d="m36.2877 35.4863-6.4603 3.581.5378.9702 2.7285-1.5124 4.145 7.4778 1.0034-.5562-4.1451-7.4777 2.7285-1.5124zm5.4135 1.5577c.9521-.5278 1.7496-.278 2.3048.7236l1.9014 3.4302 1.0264-.569-2.0089-3.6242c-.7606-1.3721-2.029-1.7939-3.3025-1.088-.7064.3508-1.1932 1.0264-1.2941 1.7961l-.0258.2424-1.9905-3.5909-1.0304.5712 4.6828 8.448 1.0304-.5712-1.8633-3.3615c-.5151-.9957-.2851-1.9355.5686-2.4087m5.3211-1.136c-.4294-.8886-.0721-1.966.8117-2.4474.9849-.5459 1.9758-.3098 2.5185.604l.0374.0676-3.333 1.8476zm4.3486-.3498c.139.9104-.2133 1.6082-1.0505 2.0722-.4853.2781-1.0607.351-1.5943.2021s-.9796-.5069-1.2358-.9919l-.0364-.0657 4.4125-2.4459c-.0434-.1034-.0925-.2043-.147-.3024-1.0055-1.8139-2.6817-2.357-4.3718-1.4201-1.5424.8549-2.0026 2.8121-1.0817 4.4734 1.1425 2.0612 3.1541 2.1734 4.5389 1.4058 1.2056-.6682 1.8049-1.854 1.5965-3.1173zm-21.332 14.4383 4.6828 8.448 4.9694-2.7546-.5434-.9803-3.9435 2.1859-4.1394-7.4677zm12.7858 3.9564c.5983-.3316 1.2322-.9797 1.2112-1.7984l-.009-.3126.1478.2669c.1207.215.2534.423.3975.623l.9752-.5406c-.2245-.3218-.4326-.6547-.6234-.9975l-2.6289-4.7428-1.0131.5615 1.9392 3.4984c.5518.9955.3248 1.884-.5945 2.3936-.8814.4885-1.739.183-2.2908-.8125l-1.9314-3.4844-1.025.5681 2.0274 3.6577c.7638 1.3778 2.1416 1.827 3.4278 1.1141m5.9579-3.3025c.5973-.3311 1.23-.9786 1.2084-1.7969l-.0092-.3125.1479.2668c.1206.2151.2532.4231.3974.6231l.9736-.5397c-.2246-.3217-.4326-.6547-.6233-.9976l-2.6289-4.7428-1.0214.5662 1.9392 3.4983c.5518.9956.3257 1.8836-.5922 2.3923-.88.4878-1.7367.1818-2.2885-.8137l-1.9315-3.4844-1.0213.5661 2.0274 3.6577c.7638 1.3778 2.1402 1.8278 3.4244 1.116m6.4915-4.8682c-1.0331.5727-2.2288.1198-2.907-1.1037-.6782-1.2236-.4191-2.4602.614-3.0329 1.0331-.5726 2.2013-.1422 2.8827 1.0871s.4498 2.4658-.5929 3.0438m-2.5627-5.0978c-.8107.4494-1.3073 1.2261-1.3023 2.008l.0026.2894-.5975-1.0778-.9487.5259 4.3361 7.8226.9718-.5386-1.7647-3.1835.2252.1259c.4998.287 1.3625.4105 2.2845-.1006 1.5467-.8573 1.9297-2.6165.9549-4.375-.9749-1.7586-2.6121-2.3528-4.1627-1.4933m5.4507.0974c-.4294-.8887-.0729-1.9656.8099-2.4465.9839-.5453 1.9741-.3089 2.5167.605l.0375.0677-3.3294 1.8455zm4.3449-.3478c.1393.9102-.2124 1.6077-1.0487 2.0712-.4847.2784-1.0598.3514-1.5932.2023-.5334-.1492-.9792-.5077-1.2349-.9932l-.0364-.0657 4.4077-2.4433c-.0436-.1033-.0926-.2042-.147-.3023-1.0055-1.8139-2.6805-2.3577-4.3689-1.4218-1.5289.8475-2.0055 2.8137-1.0846 4.475 1.1425 2.0612 3.1525 2.1744 4.5358 1.4076 1.2042-.6676 1.8026-1.8528 1.5938-3.1158z" fill="#d73128"/><path d="m57.1203 64.8655c12.0759-6.6938 16.439-21.9098 9.7452-33.9857-6.6938-12.076-21.9097-16.4391-33.9857-9.7453s-16.4391 21.9098-9.7453 33.9857c6.6938 12.076 21.9098 16.4391 33.9858 9.7453z" stroke="#d73128"/></g></svg>