<?xml version="1.0" encoding="UTF-8"?>
<svg width="86px" height="23px" viewBox="0 0 86 23" version="1.1" xmlns="http://www.w3.org/2000/svg" xmlns:xlink="http://www.w3.org/1999/xlink">
    <!-- Generator: sketchtool 47.1 (45422) - http://www.bohemiancoding.com/sketch -->
    <title>4A28A3DF-6433-4466-930E-0E4F83FA05DD</title>
    <desc>Created with sketchtool.</desc>
    <defs></defs>
    <g id="Symbols" stroke="none" stroke-width="1" fill="none" fill-rule="evenodd" fill-opacity="0.48">
        <g id="footer" transform="translate(-677.000000, -940.000000)" fill="#000000">
            <path d="M760.331802,962.561269 L763,962.561269 L763,945.091583 L760.331802,945.091583 L760.331802,962.561269 Z M755.767813,962.561269 L758.522812,962.561269 L758.522812,945.091583 L755.767813,945.091583 L755.767813,952.641084 L752.669383,952.641084 L752.669383,945.091583 L749.999927,945.091583 L749.999927,962.561269 L752.669383,962.561269 L752.669383,955.011769 L755.767813,955.011769 L755.767813,962.561269 Z M747.246186,961.595293 C747.934307,960.805064 748.278996,959.664622 748.278996,958.259914 L748.278996,955.977746 L745.781885,956.064979 L745.781885,958.610129 C745.781885,959.225891 745.60954,959.664622 745.351652,959.927603 C745.093764,960.190585 744.749075,960.279101 744.318842,960.279101 C743.888609,960.279101 743.54392,960.190585 743.286032,959.927603 C743.028144,959.751855 742.855799,959.225891 742.855799,958.610129 L742.855799,949.129957 C742.855799,948.515478 743.028144,948.076747 743.286032,947.813765 C743.54392,947.549501 743.801808,947.286519 744.233299,947.286519 C744.663531,947.286519 745.006963,947.462268 745.266109,947.72525 C745.523997,947.900998 745.696342,948.428245 745.696342,949.042724 L745.696342,950.886162 L748.278996,950.886162 L748.278996,949.21719 C748.278996,947.72525 747.934307,946.67204 747.246186,945.881812 C746.556807,945.091583 745.523997,944.740086 744.233299,944.740086 C742.855799,944.740086 741.908532,945.091583 741.219154,945.881812 C740.531033,946.67204 740.186343,947.813765 740.186343,949.21719 L740.186343,958.259914 C740.186343,959.751855 740.531033,960.805064 741.219154,961.595293 C741.908532,962.385521 742.941343,962.737018 744.233299,962.737018 C745.60954,962.737018 746.556807,962.385521 747.246186,961.595293 L747.246186,961.595293 Z M737.345801,961.859557 C738.120723,961.069329 738.465413,959.927603 738.465413,958.522896 L738.465413,955.27475 C738.465413,953.958559 738.206267,952.992582 737.69049,952.289587 C737.173456,951.587874 736.485336,951.236377 735.452525,951.236377 C734.247371,951.236377 733.472449,951.675107 732.955414,952.7296 L732.955414,949.481455 C732.955414,948.691227 733.127759,948.16398 733.385647,947.813765 C733.644793,947.549501 733.988225,947.373752 734.505259,947.373752 C734.935491,947.373752 735.280181,947.549501 735.538069,947.813765 C735.795957,947.988231 735.968302,948.515478 735.968302,949.129957 L735.968302,949.744436 L738.465413,949.744436 L738.465413,949.305706 C738.465413,947.813765 738.120723,946.759273 737.432602,945.969045 C736.743224,945.180099 735.710414,944.828602 734.418457,944.828602 C732.955414,944.828602 731.922604,945.180099 731.234484,945.969045 C730.545105,946.759273 730.200415,947.900998 730.200415,949.392939 L730.028071,958.522896 C730.028071,960.014836 730.37276,961.069329 731.147682,961.859557 C731.922604,962.648502 732.955414,963 734.247371,963 C735.623612,963 736.65768,962.648502 737.345801,961.859557 L737.345801,961.859557 Z M735.882758,958.522896 C735.882758,959.137375 735.710414,959.576106 735.452525,959.84037 C735.193379,960.103352 734.849948,960.190585 734.418457,960.190585 C733.988225,960.190585 733.644793,960.103352 733.385647,959.84037 C733.127759,959.664622 732.955414,959.137375 732.955414,958.522896 L732.955414,955.363266 C732.955414,954.748787 733.127759,954.308773 733.385647,954.045792 C733.644793,953.78281 733.988225,953.607061 734.418457,953.607061 C734.763147,953.607061 735.193379,953.870043 735.452525,954.045792 C735.710414,954.221541 735.882758,954.748787 735.882758,955.363266 L735.882758,958.522896 Z M728.565028,951.763623 C728.822916,951.060628 728.995261,950.271683 728.995261,949.305706 C728.995261,947.813765 728.651829,946.759273 727.96245,945.969045 C727.27433,945.180099 726.24152,944.828602 724.949563,944.828602 C723.572064,944.828602 722.624797,945.180099 721.936676,945.969045 C721.248556,946.759273 720.903866,947.900998 720.903866,949.305706 L720.903866,950.973395 L723.48652,950.973395 L723.48652,949.129957 C723.48652,948.515478 723.658865,948.076747 723.916753,947.813765 C724.174641,947.549501 724.519331,947.373752 724.949563,947.373752 C725.379796,947.373752 725.724485,947.549501 725.982374,947.813765 C726.24152,948.076747 726.412606,948.602711 726.412606,949.392939 C726.412606,950.183167 726.24152,950.886162 725.810029,951.587874 C725.552141,952.202354 725.207451,952.816833 724.777219,953.344079 C724.432529,953.78281 723.916753,954.397289 723.48652,954.83602 C723.056288,955.27475 722.624797,955.801997 722.194564,956.32796 C721.764332,956.855207 721.419642,957.38117 721.161754,958.084165 C720.903866,958.785878 720.731521,959.488873 720.731521,960.366334 L720.731521,962.472754 L728.565028,962.472754 L728.565028,959.927603 L723.48652,959.927603 L723.48652,959.576106 C723.48652,959.225891 723.658865,958.522896 723.916753,958.171398 C724.174641,957.821184 724.519331,957.293937 724.949563,956.855207 C725.294253,956.503709 725.724485,955.977746 726.24152,955.450499 C726.671752,954.923253 727.101985,954.397289 727.532218,953.78281 C727.96245,953.168331 728.30714,952.465335 728.565028,951.763623 L728.565028,951.763623 Z M718.493556,961.683808 C719.268479,960.89358 719.61191,959.751855 719.61191,958.347147 L719.61191,957.030955 C719.61191,956.153494 719.354022,955.363266 719.181677,954.83602 C719.009333,954.308773 718.5791,953.78281 717.976522,953.431312 C719.009333,952.816833 719.61191,951.587874 719.61191,949.920185 L719.61191,949.392939 C719.61191,947.900998 719.268479,946.847788 718.493556,946.05756 C717.718634,945.267332 716.685824,944.915835 715.308325,944.915835 C713.844024,944.915835 712.898015,945.267332 712.123093,946.05756 C711.348171,946.847788 711.003481,947.988231 711.003481,949.392939 L711.003481,949.920185 C711.003481,950.097217 711.012287,950.265269 711.023609,950.429472 L711.090283,950.447432 L711.69286,952.115121 C711.783435,952.370405 711.861431,952.626973 711.928104,952.884823 C712.130641,953.099057 712.365885,953.28122 712.638869,953.431312 C712.447654,953.528808 712.274052,953.672486 712.110513,953.832841 C712.170897,954.263874 712.208636,954.707736 712.208636,955.187517 C712.208636,956.732054 711.793499,958.356127 711.131796,959.658207 C711.289045,960.484355 711.601027,961.151431 712.123093,961.683808 C712.898015,962.472754 713.930825,962.824251 715.308325,962.824251 C716.771368,962.824251 717.718634,962.472754 718.493556,961.683808 L718.493556,961.683808 Z M717.029256,950.271683 C717.029256,950.886162 716.943712,951.412126 716.599023,951.675107 C716.255591,951.939372 715.910902,952.115121 715.480669,952.115121 C715.049179,952.115121 714.618946,951.939372 714.361058,951.675107 C714.10317,951.412126 713.930825,950.973395 713.930825,950.271683 L713.930825,949.305706 C713.930825,948.602711 714.016369,947.988231 714.361058,947.72525 C714.705747,947.462268 715.049179,947.286519 715.480669,947.286519 C715.910902,947.286519 716.255591,947.462268 716.599023,947.72525 C716.858169,947.988231 717.029256,948.515478 717.029256,949.305706 L717.029256,950.271683 Z M717.029256,958.259914 C717.029256,959.050142 716.858169,959.576106 716.599023,959.84037 C716.255591,960.103352 715.910902,960.279101 715.480669,960.279101 C715.049179,960.279101 714.705747,960.103352 714.361058,959.84037 C714.10317,959.488873 713.930825,959.050142 713.930825,958.259914 L713.930825,956.679458 C713.930825,956.064979 714.10317,955.537732 714.361058,955.187517 C714.618946,954.923253 714.963635,954.748787 715.480669,954.748787 C715.910902,954.748787 716.341135,954.83602 716.599023,955.187517 C716.858169,955.537732 717.029256,955.977746 717.029256,956.679458 L717.029256,958.259914 Z M711.175826,954.83602 C711.090283,953.168331 710.573249,951.675107 709.712783,950.358916 C709.368094,949.831669 709.023404,949.481455 708.593172,949.129957 L702.739742,942.457917 C702.567398,942.282169 702.222708,942.282169 702.222708,942.282169 C701.792475,942.282169 701.189898,941.404707 700.674122,941.228959 C700.329433,940.527246 699.55451,940.088516 698.865132,940.088516 C697.746778,940.088516 696.713968,941.05321 696.713968,942.194936 L696.713968,942.370684 C696.369279,942.809415 696.024589,943.336661 695.939046,943.862625 L695.852245,943.862625 C695.508813,943.862625 695.164124,944.038374 694.906236,944.301355 C694.64709,944.214122 694.389202,944.125607 694.044512,944.125607 C693.701081,944.125607 693.356392,944.214122 693.098504,944.389871 C692.926159,944.038374 692.495926,943.862625 692.151237,943.862625 L692.064435,943.862625 C691.893349,943.248145 691.634203,942.722182 691.290771,942.370684 L691.290771,942.194936 C691.290771,941.05321 690.343505,940 689.13835,940 C688.276626,940 687.674049,940.614479 687.330617,941.228959 C686.72804,941.404707 686.211006,942.282169 685.780773,942.282169 C685.780773,942.282169 685.436084,942.282169 685.263739,942.546433 L679.41031,949.129957 C678.980077,949.481455 678.635388,949.920185 678.290698,950.271683 L678.205155,950.358916 C677.602577,951.675107 677,953.168331 677,954.83602 C677,959.137375 680.357576,962.824251 684.661162,962.824251 C688.621316,962.824251 691.893349,960.103352 692.323581,955.88923 L692.323581,949.568688 C693.184047,949.568688 693.528736,948.954208 693.528736,948.428245 L693.528736,947.286519 L694.474745,947.286519 L694.474745,948.428245 C694.561546,948.954208 695.078581,949.568688 695.852245,949.568688 L695.852245,955.363266 C695.852245,959.576106 699.467709,962.561269 703.514664,962.561269 C707.732706,962.561269 711.175826,959.137375 711.175826,954.83602 L711.175826,954.83602 Z M690.688194,955.011769 C690.688194,958.347147 688.018738,961.156562 684.661162,961.156562 C681.304843,961.156562 678.635388,958.347147 678.635388,955.011769 C678.635388,951.587874 681.390387,948.866975 684.661162,948.866975 C687.933195,948.866975 690.688194,951.675107 690.688194,955.011769 L690.688194,955.011769 Z M709.453637,955.011769 C709.540439,958.347147 706.872241,961.156562 703.427863,961.156562 C700.071545,961.156562 697.402089,958.347147 697.402089,955.011769 C697.402089,951.587874 700.157088,948.866975 703.427863,948.866975 C706.699896,948.866975 709.453637,951.675107 709.453637,955.011769 L709.453637,955.011769 Z M704.202785,950.534665 C704.289586,950.447432 704.289586,950.447432 704.289586,950.358916 C704.289586,950.183167 704.117242,950.095934 703.944897,950.095934 C702.481854,950.095934 701.104355,950.797646 700.242631,951.850856 C699.55451,952.7296 699.124278,953.78281 699.124278,955.011769 C699.124278,955.187517 699.209821,955.27475 699.382166,955.27475 C699.467709,955.27475 699.55451,955.27475 699.55451,955.187517 C699.640054,955.099002 699.640054,955.099002 699.640054,955.011769 C699.640054,953.870043 699.984743,952.992582 700.674122,952.202354 C701.534587,951.149144 702.652941,950.621897 704.03044,950.621897 C704.117242,950.621897 704.202785,950.621897 704.202785,950.534665 L704.202785,950.534665 Z M685.263739,950.534665 C685.35054,950.447432 685.35054,950.447432 685.35054,950.358916 C685.263739,950.183167 685.178196,950.095934 685.005851,950.095934 C683.542808,950.095934 682.165309,950.797646 681.304843,951.850856 C680.615465,952.7296 680.185232,953.78281 680.185232,955.011769 C680.185232,955.187517 680.270775,955.27475 680.44312,955.27475 C680.529921,955.27475 680.615465,955.27475 680.615465,955.187517 C680.702266,955.099002 680.702266,955.099002 680.702266,955.011769 C680.702266,953.870043 681.045697,952.992582 681.735076,952.202354 C682.595541,951.149144 683.715153,950.621897 685.092652,950.621897 C685.178196,950.621897 685.263739,950.621897 685.263739,950.534665 L685.263739,950.534665 Z" id="826logo"></path>
        </g>
    </g>
</svg>