<?xml version="1.0" encoding="UTF-8" standalone="no"?>
<!-- Generator: Adobe Illustrator 19.0.0, SVG Export Plug-In . SVG Version: 6.00 Build 0)  -->

<svg
   xmlns:dc="http://purl.org/dc/elements/1.1/"
   xmlns:cc="http://creativecommons.org/ns#"
   xmlns:rdf="http://www.w3.org/1999/02/22-rdf-syntax-ns#"
   xmlns:svg="http://www.w3.org/2000/svg"
   xmlns="http://www.w3.org/2000/svg"
   xmlns:sodipodi="http://sodipodi.sourceforge.net/DTD/sodipodi-0.dtd"
   xmlns:inkscape="http://www.inkscape.org/namespaces/inkscape"
   version="1.1"
   id="Layer_1"
   x="0px"
   y="0px"
   width="81.1px"
   height="21.3px"
   viewBox="-234.1 174.9 81.1 21.3"
   style="enable-background:new -234.1 174.9 81.1 21.3;"
   xml:space="preserve"
   inkscape:version="0.91 r13725"
   sodipodi:docname="826-logo.svg"><metadata
     id="metadata26"><rdf:RDF><cc:Work
         rdf:about=""><dc:format>image/svg+xml</dc:format><dc:type
           rdf:resource="http://purl.org/dc/dcmitype/StillImage" /></cc:Work></rdf:RDF></metadata><defs
     id="defs24" /><sodipodi:namedview
     pagecolor="#ffffff"
     bordercolor="#666666"
     borderopacity="1"
     objecttolerance="10"
     gridtolerance="10"
     guidetolerance="10"
     inkscape:pageopacity="0"
     inkscape:pageshadow="2"
     inkscape:window-width="920"
     inkscape:window-height="480"
     id="namedview22"
     showgrid="false"
     inkscape:zoom="3.5511715"
     inkscape:cx="40.549999"
     inkscape:cy="10.65"
     inkscape:window-x="0"
     inkscape:window-y="0"
     inkscape:window-maximized="0"
     inkscape:current-layer="Layer_1" /><style
     type="text/css"
     id="style3">
	.st0{opacity:1;}
	.st1{fill:#FFFFFF;}
</style><title
     id="title5">E99DCEE3-6D81-4463-9F30-42B312F8C532</title><desc
     id="desc7">Created with sketchtool.</desc><g
     id="desktop"><g
       id="g10"><g
         id="Homepage_8_"
         transform="translate(-218.000000, -451.000000)"><g
           id="feature_8_"
           transform="translate(0.000000, 56.000000)"><g
             id="Overlay_8_"
             transform="translate(188.000000, 365.000000)"><g
               id="_x38_26-logo_8_"
               transform="translate(30.000000, 30.000000)"><g
                 id="g16"><g
                   class="st0"
                   id="g18"><path
                     class="st1"
                     d="M-155.4,195.8h2.5v-16.1h-2.5V195.8z M-159.8,195.8h2.6v-16.1h-2.6v7h-2.9v-7h-2.5v16.1h2.5v-7h2.9          V195.8z M-167.8,194.9c0.6-0.7,1-1.8,1-3.1v-2.1l-2.4,0.1v2.4c0,0.6-0.2,1-0.4,1.2s-0.6,0.3-1,0.3s-0.7-0.1-1-0.3          c-0.2-0.2-0.4-0.6-0.4-1.2v-8.8c0-0.6,0.2-1,0.4-1.2s0.5-0.5,0.9-0.5s0.7,0.2,1,0.4c0.2,0.2,0.4,0.6,0.4,1.2v1.7h2.4v-1.5          c0-1.4-0.3-2.4-1-3.1c-0.6-0.7-1.6-1.1-2.8-1.1c-1.3,0-2.2,0.3-2.8,1.1c-0.6,0.7-1,1.8-1,3.1v8.4c0,1.4,0.3,2.4,1,3.1          c0.6,0.7,1.6,1.1,2.8,1.1C-169.3,196-168.4,195.7-167.8,194.9L-167.8,194.9z M-177.1,195.2c0.7-0.7,1.1-1.8,1.1-3.1v-3          c0-1.2-0.2-2.1-0.7-2.8c-0.5-0.6-1.1-1-2.1-1c-1.1,0-1.9,0.4-2.4,1.4v-3c0-0.7,0.2-1.2,0.4-1.5c0.2-0.2,0.6-0.4,1.1-0.4          c0.4,0,0.7,0.2,1,0.4c0.2,0.2,0.4,0.6,0.4,1.2v0.6h2.4v-0.4c0-1.4-0.3-2.4-1-3.1c-0.6-0.7-1.6-1.1-2.8-1.1          c-1.4,0-2.4,0.3-3,1.1c-0.6,0.7-1,1.8-1,3.2l-0.2,8.4c0,1.4,0.3,2.4,1.1,3.1c0.7,0.7,1.7,1.1,2.9,1.1          C-178.8,196.2-177.8,195.9-177.1,195.2L-177.1,195.2z M-178.4,192.1c0,0.6-0.2,1-0.4,1.2s-0.6,0.3-1,0.3s-0.7-0.1-1-0.3          c-0.2-0.2-0.4-0.6-0.4-1.2v-2.9c0-0.6,0.2-1,0.4-1.2s0.6-0.4,1-0.4c0.3,0,0.7,0.2,1,0.4c0.2,0.2,0.4,0.6,0.4,1.2V192.1z           M-185.3,185.9c0.2-0.6,0.4-1.4,0.4-2.3c0-1.4-0.3-2.4-1-3.1c-0.6-0.7-1.6-1.1-2.8-1.1c-1.3,0-2.2,0.3-2.8,1.1          c-0.6,0.7-1,1.8-1,3.1v1.5h2.4v-1.7c0-0.6,0.2-1,0.4-1.2s0.6-0.4,1-0.4s0.7,0.2,1,0.4c0.2,0.2,0.4,0.7,0.4,1.5          c0,0.7-0.2,1.4-0.6,2c-0.2,0.6-0.6,1.1-1,1.6c-0.3,0.4-0.8,1-1.2,1.4s-0.8,0.9-1.2,1.4s-0.7,1-1,1.6          c-0.2,0.6-0.4,1.3-0.4,2.1v1.9h7.4v-2.4h-4.8V193c0-0.3,0.2-1,0.4-1.3s0.6-0.8,1-1.2c0.3-0.3,0.7-0.8,1.2-1.3          c0.4-0.5,0.8-1,1.2-1.5C-185.9,187.2-185.6,186.5-185.3,185.9L-185.3,185.9z M-194.8,195c0.7-0.7,1.1-1.8,1.1-3.1v-1.2          c0-0.8-0.2-1.5-0.4-2s-0.6-1-1.1-1.3c1-0.6,1.5-1.7,1.5-3.2v-0.5c0-1.4-0.3-2.4-1.1-3.1c-0.7-0.7-1.7-1.1-3-1.1          c-1.4,0-2.3,0.3-3,1.1c-0.7,0.7-1.1,1.8-1.1,3.1v0.5c0,0.2,0,0.3,0,0.5h0.1l0.6,1.5c0.1,0.2,0.2,0.5,0.2,0.7          c0.2,0.2,0.4,0.4,0.7,0.5c-0.2,0.1-0.3,0.2-0.5,0.4c0.1,0.4,0.1,0.8,0.1,1.3c0,1.4-0.4,2.9-1,4.1c0.1,0.8,0.4,1.4,0.9,1.9          c0.7,0.7,1.7,1.1,3,1.1C-196.4,196.1-195.6,195.8-194.8,195L-194.8,195z M-196.3,184.5c0,0.6-0.1,1.1-0.4,1.3          c-0.3,0.2-0.6,0.4-1.1,0.4c-0.4,0-0.8-0.2-1.1-0.4c-0.2-0.2-0.4-0.6-0.4-1.3v-0.9c0-0.6,0.1-1.2,0.4-1.5s0.6-0.4,1.1-0.4          c0.4,0,0.7,0.2,1.1,0.4c0.2,0.2,0.4,0.7,0.4,1.5V184.5z M-196.3,191.9c0,0.7-0.2,1.2-0.4,1.5c-0.3,0.2-0.6,0.4-1.1,0.4          c-0.4,0-0.7-0.2-1.1-0.4c-0.2-0.3-0.4-0.7-0.4-1.5v-1.5c0-0.6,0.2-1.1,0.4-1.4c0.2-0.2,0.6-0.4,1.1-0.4          c0.4,0,0.8,0.1,1.1,0.4c0.2,0.3,0.4,0.7,0.4,1.4V191.9z M-201.8,188.7c-0.1-1.5-0.6-2.9-1.4-4.1c-0.3-0.5-0.6-0.8-1.1-1.1          l-5.5-6.2c-0.2-0.2-0.5-0.2-0.5-0.2c-0.4,0-1-0.8-1.5-1c-0.3-0.6-1.1-1.1-1.7-1.1c-1.1,0-2,0.9-2,1.9v0.2          c-0.3,0.4-0.6,0.9-0.7,1.4h-0.1c-0.3,0-0.6,0.2-0.9,0.4c-0.2-0.1-0.5-0.2-0.8-0.2s-0.6,0.1-0.9,0.2          c-0.2-0.3-0.6-0.5-0.9-0.5h-0.1c-0.2-0.6-0.4-1.1-0.7-1.4v0c0-1.1-0.9-2-2-2c-0.8,0-1.4,0.6-1.7,1.1c-0.6,0.2-1.1,1-1.5,1          c0,0-0.3,0-0.5,0.2l-5.5,6.1c-0.4,0.3-0.7,0.7-1.1,1.1l-0.1,0.1c-0.6,1.2-1.1,2.6-1.1,4.1c0,4,3.2,7.4,7.2,7.4          c3.7,0,6.8-2.5,7.2-6.4v-5.8c0.8,0,1.1-0.6,1.1-1.1v-1.1h0.9v1.1c0.1,0.5,0.6,1.1,1.3,1.1v5.4c0,3.9,3.4,6.6,7.2,6.6          C-205.1,195.8-201.8,192.7-201.8,188.7L-201.8,188.7z M-221.1,188.9c0,3.1-2.5,5.7-5.7,5.7s-5.7-2.6-5.7-5.7          c0-3.2,2.6-5.7,5.7-5.7C-223.6,183.2-221.1,185.8-221.1,188.9L-221.1,188.9z M-203.3,188.9c0.1,3.1-2.4,5.7-5.7,5.7          c-3.2,0-5.7-2.6-5.7-5.7c0-3.2,2.6-5.7,5.7-5.7S-203.3,185.8-203.3,188.9L-203.3,188.9z M-208.3,184.7          c0.1-0.1,0.1-0.1,0.1-0.2c0-0.2-0.2-0.2-0.3-0.2c-1.4,0-2.7,0.6-3.5,1.6c-0.6,0.8-1.1,1.8-1.1,2.9c0,0.2,0.1,0.2,0.2,0.2          c0.1,0,0.2,0,0.2-0.1c0.1-0.1,0.1-0.1,0.1-0.2c0-1.1,0.3-1.9,1-2.6c0.8-1,1.9-1.5,3.2-1.5          C-208.4,184.8-208.3,184.8-208.3,184.7L-208.3,184.7z M-226.1,184.7c0.1-0.1,0.1-0.1,0.1-0.2c-0.1-0.2-0.2-0.2-0.3-0.2          c-1.4,0-2.7,0.6-3.5,1.6c-0.6,0.8-1.1,1.8-1.1,2.9c0,0.2,0.1,0.2,0.2,0.2c0.1,0,0.2,0,0.2-0.1c0.1-0.1,0.1-0.1,0.1-0.2          c0-1.1,0.3-1.9,1-2.6c0.8-1,1.9-1.5,3.2-1.5C-226.3,184.8-226.1,184.8-226.1,184.7L-226.1,184.7z"
                     id="path20" /></g></g></g></g></g></g></g></g></svg>