<?xml version="1.0" encoding="UTF-8" standalone="no"?>
<svg width="33px" height="22px" viewBox="0 0 33 22" version="1.1" xmlns="http://www.w3.org/2000/svg" xmlns:xlink="http://www.w3.org/1999/xlink">
    <!-- Generator: sketchtool 41.2 (35397) - http://www.bohemiancoding.com/sketch -->
    <title>8DCEFFF8-568C-4C0A-B594-5D9696293E6D</title>
    <desc>Created with sketchtool.</desc>
    <defs></defs>
    <g id="Symbols" stroke="none" stroke-width="1" fill="none" fill-rule="evenodd">
        <g id="nav-bar" transform="translate(-21.000000, -16.000000)" fill="#FFFFFF">
            <g transform="translate(-1.000000, 0.000000)" id="826-symbol">
                <g transform="translate(22.000000, 16.000000)">
                    <path d="M32.1888595,13.7028071 C32.1082896,12.1625002 31.6213156,10.7833331 30.8108772,9.5676755 C30.4862279,9.08070155 30.1615786,8.7572371 29.7563594,8.4325878 L24.2432456,2.27017539 C24.080921,2.10785074 23.7562717,2.10785074 23.7562717,2.10785074 C23.3510525,2.10785074 22.7835086,1.29741234 22.2977195,1.13508769 C21.9730702,0.486973948 21.2432017,0.0817547504 20.5939031,0.0817547504 C19.5405702,0.0817547504 18.5678071,0.972763044 18.5678071,2.02728084 L18.5678071,2.18960549 C18.2431578,2.59482469 17.9185085,3.08179863 17.8379387,3.56758773 L17.7561839,3.56758773 C17.4327195,3.56758773 17.1080702,3.72991238 16.8651756,3.97280693 C16.6210962,3.89223703 16.3782017,3.81048228 16.0535524,3.81048228 C15.7300879,3.81048228 15.4054386,3.89223703 15.1625441,4.05456168 C15.0002194,3.72991238 14.5950002,3.56758773 14.2703509,3.56758773 L14.1885962,3.56758773 C14.0274564,3.00004388 13.783377,2.51425479 13.4599125,2.18960549 L13.4599125,2.02728084 C13.4599125,0.972763044 12.5677194,1.77635684e-15 11.4326317,1.77635684e-15 C10.6210084,1.77635684e-15 10.0534646,0.567543847 9.73000015,1.13508769 C9.1624563,1.29741234 8.67548235,2.10785074 8.27026315,2.10785074 C8.27026315,2.10785074 7.94561386,2.10785074 7.78328921,2.35193014 L2.27017539,8.4325878 C1.86495619,8.7572371 1.54030689,9.1624563 1.21565759,9.4871056 L1.13508769,9.5676755 C0.567543847,10.7833331 -1.42108547e-14,12.1625002 -1.42108547e-14,13.7028071 C-1.42108547e-14,17.675614 3.16236853,21.0808771 7.21574536,21.0808771 C10.9456577,21.0808771 14.0274564,18.5678071 14.4326756,14.6755701 L14.4326756,8.837807 C15.243114,8.837807 15.5677633,8.27026315 15.5677633,7.78447406 L15.5677633,6.72995626 L16.4587716,6.72995626 L16.4587716,7.78447406 C16.5405263,8.27026315 17.0275003,8.837807 17.7561839,8.837807 L17.7561839,14.189781 C17.7561839,18.0808332 21.161447,20.8379825 24.9731141,20.8379825 C28.945921,20.8379825 32.1888595,17.675614 32.1888595,13.7028071 L32.1888595,13.7028071 Z M12.8923687,13.8651317 C12.8923687,16.9457455 10.3781139,19.5405702 7.21574536,19.5405702 C4.05456168,19.5405702 1.54030689,16.9457455 1.54030689,13.8651317 C1.54030689,10.7027632 4.13513158,8.18969326 7.21574536,8.18969326 C10.297544,8.18969326 12.8923687,10.7833331 12.8923687,13.8651317 L12.8923687,13.8651317 Z M30.5667978,13.8651317 C30.6485526,16.9457455 28.1354826,19.5405702 24.8913594,19.5405702 C21.7301757,19.5405702 19.2159209,16.9457455 19.2159209,13.8651317 C19.2159209,10.7027632 21.8107456,8.18969326 24.8913594,8.18969326 C27.973158,8.18969326 30.5667978,10.7833331 30.5667978,13.8651317 L30.5667978,13.8651317 Z M25.6212279,9.73000015 C25.7029826,9.64943025 25.7029826,9.64943025 25.7029826,9.5676755 C25.7029826,9.40535085 25.540658,9.32478095 25.3783333,9.32478095 C24.0003511,9.32478095 22.7029387,9.97289469 21.8913155,10.9456577 C21.2432017,11.757281 20.8379825,12.730044 20.8379825,13.8651317 C20.8379825,14.0274564 20.9185524,14.1080263 21.0808771,14.1080263 C21.161447,14.1080263 21.2432017,14.1080263 21.2432017,14.0274564 C21.3237716,13.9457016 21.3237716,13.9457016 21.3237716,13.8651317 C21.3237716,12.8106139 21.6484209,12.0001755 22.2977195,11.270307 C23.1081579,10.297544 24.1614909,9.81057005 25.4589032,9.81057005 C25.540658,9.81057005 25.6212279,9.81057005 25.6212279,9.73000015 L25.6212279,9.73000015 Z M7.78328921,9.73000015 C7.86504396,9.64943025 7.86504396,9.64943025 7.86504396,9.5676755 C7.78328921,9.40535085 7.70271931,9.32478095 7.54039466,9.32478095 C6.16241242,9.32478095 4.86500007,9.97289469 4.05456168,10.9456577 C3.40526308,11.757281 3.00004388,12.730044 3.00004388,13.8651317 C3.00004388,14.0274564 3.08061378,14.1080263 3.24293843,14.1080263 C3.32469318,14.1080263 3.40526308,14.1080263 3.40526308,14.0274564 C3.48701783,13.9457016 3.48701783,13.9457016 3.48701783,13.8651317 C3.48701783,12.8106139 3.81048228,12.0001755 4.45978088,11.270307 C5.27021927,10.297544 6.32473707,9.81057005 7.62214941,9.81057005 C7.70271931,9.81057005 7.78328921,9.81057005 7.78328921,9.73000015 L7.78328921,9.73000015 Z"></path>
                </g>
            </g>
        </g>
    </g>
</svg>