<?xml version="1.0" encoding="utf-8"?>
<!-- Generator: Adobe Illustrator 19.0.0, SVG Export Plug-In . SVG Version: 6.00 Build 0)  -->
<svg version="1.1" id="Layer_1" xmlns="http://www.w3.org/2000/svg" xmlns:xlink="http://www.w3.org/1999/xlink" x="0px" y="0px"
	 width="81px" height="20.8px" viewBox="-239 176 81 20.8" style="enable-background:new -239 176 81 20.8;" xml:space="preserve">
<style type="text/css">
	.st0{fill:#FFFFFF;fill-opacity:0.6016;}
</style>
<title>E99DCEE3-6D81-4463-9F30-42B312F8C532</title>
<desc>Created with sketchtool.</desc>
<g id="desktop">
	<g id="Homepage" transform="translate(-218.000000, -451.000000)">
		<g id="feature" transform="translate(0.000000, 56.000000)">
			<g id="Overlay" transform="translate(188.000000, 365.000000)">
				<g id="_x38_26-logo" transform="translate(30.000000, 30.000000)">
					<path class="st0" d="M-160.5,196.8h2.5v-16.1h-2.5V196.8z M-164.8,196.8h2.6v-16.1h-2.6v7h-2.9v-7h-2.5v16.1h2.5v-7h2.9V196.8z
						 M-172.8,195.9c0.6-0.7,1-1.8,1-3.1v-2.1l-2.4,0.1v2.4c0,0.6-0.2,1-0.4,1.2c-0.2,0.2-0.6,0.3-1,0.3c-0.4,0-0.7-0.1-1-0.3
						c-0.2-0.2-0.4-0.6-0.4-1.2v-8.8c0-0.6,0.2-1,0.4-1.2c0.2-0.2,0.5-0.5,0.9-0.5c0.4,0,0.7,0.2,1,0.4c0.2,0.2,0.4,0.6,0.4,1.2v1.7
						h2.4v-1.5c0-1.4-0.3-2.4-1-3.1c-0.6-0.7-1.6-1.1-2.8-1.1c-1.3,0-2.2,0.3-2.8,1.1c-0.6,0.7-1,1.8-1,3.1v8.4c0,1.4,0.3,2.4,1,3.1
						c0.6,0.7,1.6,1.1,2.8,1.1C-174.4,197-173.5,196.7-172.8,195.9L-172.8,195.9z M-182.2,196.2c0.7-0.7,1.1-1.8,1.1-3.1v-3
						c0-1.2-0.2-2.1-0.7-2.8c-0.5-0.6-1.1-1-2.1-1c-1.1,0-1.9,0.4-2.4,1.4v-3c0-0.7,0.2-1.2,0.4-1.5c0.2-0.2,0.6-0.4,1.1-0.4
						c0.4,0,0.7,0.2,1,0.4c0.2,0.2,0.4,0.6,0.4,1.2v0.6h2.4v-0.4c0-1.4-0.3-2.4-1-3.1c-0.6-0.7-1.6-1.1-2.8-1.1
						c-1.4,0-2.4,0.3-3,1.1c-0.6,0.7-1,1.8-1,3.2l-0.2,8.4c0,1.4,0.3,2.4,1.1,3.1c0.7,0.7,1.7,1.1,2.9,1.1
						C-183.8,197.2-182.8,196.9-182.2,196.2L-182.2,196.2z M-183.5,193.1c0,0.6-0.2,1-0.4,1.2c-0.2,0.2-0.6,0.3-1,0.3
						c-0.4,0-0.7-0.1-1-0.3c-0.2-0.2-0.4-0.6-0.4-1.2v-2.9c0-0.6,0.2-1,0.4-1.2c0.2-0.2,0.6-0.4,1-0.4c0.3,0,0.7,0.2,1,0.4
						c0.2,0.2,0.4,0.6,0.4,1.2V193.1z M-190.4,186.9c0.2-0.6,0.4-1.4,0.4-2.3c0-1.4-0.3-2.4-1-3.1c-0.6-0.7-1.6-1.1-2.8-1.1
						c-1.3,0-2.2,0.3-2.8,1.1c-0.6,0.7-1,1.8-1,3.1v1.5h2.4v-1.7c0-0.6,0.2-1,0.4-1.2c0.2-0.2,0.6-0.4,1-0.4c0.4,0,0.7,0.2,1,0.4
						c0.2,0.2,0.4,0.7,0.4,1.5c0,0.7-0.2,1.4-0.6,2c-0.2,0.6-0.6,1.1-1,1.6c-0.3,0.4-0.8,1-1.2,1.4c-0.4,0.4-0.8,0.9-1.2,1.4
						c-0.4,0.5-0.7,1-1,1.6c-0.2,0.6-0.4,1.3-0.4,2.1v1.9h7.4v-2.4h-4.8v-0.3c0-0.3,0.2-1,0.4-1.3c0.2-0.3,0.6-0.8,1-1.2
						c0.3-0.3,0.7-0.8,1.2-1.3c0.4-0.5,0.8-1,1.2-1.5C-191,188.2-190.7,187.5-190.4,186.9L-190.4,186.9z M-199.9,196
						c0.7-0.7,1.1-1.8,1.1-3.1v-1.2c0-0.8-0.2-1.5-0.4-2c-0.2-0.5-0.6-1-1.1-1.3c1-0.6,1.5-1.7,1.5-3.2v-0.5c0-1.4-0.3-2.4-1.1-3.1
						c-0.7-0.7-1.7-1.1-3-1.1c-1.4,0-2.3,0.3-3,1.1c-0.7,0.7-1.1,1.8-1.1,3.1v0.5c0,0.2,0,0.3,0,0.5l0.1,0l0.6,1.5
						c0.1,0.2,0.2,0.5,0.2,0.7c0.2,0.2,0.4,0.4,0.7,0.5c-0.2,0.1-0.3,0.2-0.5,0.4c0.1,0.4,0.1,0.8,0.1,1.3c0,1.4-0.4,2.9-1,4.1
						c0.1,0.8,0.4,1.4,0.9,1.9c0.7,0.7,1.7,1.1,3,1.1C-201.5,197.1-200.6,196.8-199.9,196L-199.9,196z M-201.3,185.5
						c0,0.6-0.1,1.1-0.4,1.3c-0.3,0.2-0.6,0.4-1.1,0.4c-0.4,0-0.8-0.2-1.1-0.4c-0.2-0.2-0.4-0.6-0.4-1.3v-0.9c0-0.6,0.1-1.2,0.4-1.5
						s0.6-0.4,1.1-0.4c0.4,0,0.7,0.2,1.1,0.4c0.2,0.2,0.4,0.7,0.4,1.5V185.5z M-201.3,192.9c0,0.7-0.2,1.2-0.4,1.5
						c-0.3,0.2-0.6,0.4-1.1,0.4c-0.4,0-0.7-0.2-1.1-0.4c-0.2-0.3-0.4-0.7-0.4-1.5v-1.5c0-0.6,0.2-1.1,0.4-1.4
						c0.2-0.2,0.6-0.4,1.1-0.4c0.4,0,0.8,0.1,1.1,0.4c0.2,0.3,0.4,0.7,0.4,1.4V192.9z M-206.8,189.7c-0.1-1.5-0.6-2.9-1.4-4.1
						c-0.3-0.5-0.6-0.8-1.1-1.1l-5.5-6.2c-0.2-0.2-0.5-0.2-0.5-0.2c-0.4,0-1-0.8-1.5-1c-0.3-0.6-1.1-1.1-1.7-1.1c-1.1,0-2,0.9-2,1.9
						v0.2c-0.3,0.4-0.6,0.9-0.7,1.4h-0.1c-0.3,0-0.6,0.2-0.9,0.4c-0.2-0.1-0.5-0.2-0.8-0.2c-0.3,0-0.6,0.1-0.9,0.2
						c-0.2-0.3-0.6-0.5-0.9-0.5h-0.1c-0.2-0.6-0.4-1.1-0.7-1.4V178c0-1.1-0.9-2-2-2c-0.8,0-1.4,0.6-1.7,1.1c-0.6,0.2-1.1,1-1.5,1
						c0,0-0.3,0-0.5,0.2l-5.5,6.1c-0.4,0.3-0.7,0.7-1.1,1.1l-0.1,0.1c-0.6,1.2-1.1,2.6-1.1,4.1c0,4,3.2,7.4,7.2,7.4
						c3.7,0,6.8-2.5,7.2-6.4v-5.8c0.8,0,1.1-0.6,1.1-1.1v-1.1h0.9v1.1c0.1,0.5,0.6,1.1,1.3,1.1v5.4c0,3.9,3.4,6.6,7.2,6.6
						C-210.1,196.8-206.8,193.7-206.8,189.7L-206.8,189.7z M-226.1,189.9c0,3.1-2.5,5.7-5.7,5.7c-3.2,0-5.7-2.6-5.7-5.7
						c0-3.2,2.6-5.7,5.7-5.7C-228.7,184.2-226.1,186.8-226.1,189.9L-226.1,189.9z M-208.4,189.9c0.1,3.1-2.4,5.7-5.7,5.7
						c-3.2,0-5.7-2.6-5.7-5.7c0-3.2,2.6-5.7,5.7-5.7C-211,184.2-208.4,186.8-208.4,189.9L-208.4,189.9z M-213.4,185.7
						c0.1-0.1,0.1-0.1,0.1-0.2c0-0.2-0.2-0.2-0.3-0.2c-1.4,0-2.7,0.6-3.5,1.6c-0.6,0.8-1.1,1.8-1.1,2.9c0,0.2,0.1,0.2,0.2,0.2
						c0.1,0,0.2,0,0.2-0.1c0.1-0.1,0.1-0.1,0.1-0.2c0-1.1,0.3-1.9,1-2.6c0.8-1,1.9-1.5,3.2-1.5
						C-213.5,185.8-213.4,185.8-213.4,185.7L-213.4,185.7z M-231.2,185.7c0.1-0.1,0.1-0.1,0.1-0.2c-0.1-0.2-0.2-0.2-0.3-0.2
						c-1.4,0-2.7,0.6-3.5,1.6c-0.6,0.8-1.1,1.8-1.1,2.9c0,0.2,0.1,0.2,0.2,0.2c0.1,0,0.2,0,0.2-0.1c0.1-0.1,0.1-0.1,0.1-0.2
						c0-1.1,0.3-1.9,1-2.6c0.8-1,1.9-1.5,3.2-1.5C-231.3,185.8-231.2,185.8-231.2,185.7L-231.2,185.7z"/>
				</g>
			</g>
		</g>
	</g>
</g>
</svg>
