<?xml version="1.0" encoding="utf-8"?>
<!-- Generator: Adobe Illustrator 19.0.0, SVG Export Plug-In . SVG Version: 6.00 Build 0)  -->
<svg version="1.1"
	 id="Layer_1" xmlns:dc="http://purl.org/dc/elements/1.1/" xmlns:svg="http://www.w3.org/2000/svg" xmlns:inkscape="http://www.inkscape.org/namespaces/inkscape" xmlns:cc="http://creativecommons.org/ns#" xmlns:rdf="http://www.w3.org/1999/02/22-rdf-syntax-ns#" xmlns:sodipodi="http://sodipodi.sourceforge.net/DTD/sodipodi-0.dtd"
	 xmlns="http://www.w3.org/2000/svg" xmlns:xlink="http://www.w3.org/1999/xlink" x="0px" y="0px" width="16px" height="8.5px"
	 viewBox="554.8 125.1 16 8.5" style="enable-background:new 554.8 125.1 16 8.5;" xml:space="preserve">
<style type="text/css">
	.st0{opacity:0.6;}
	.st1{fill:#FFFFFF;}
</style>
<g transform="translate(-139.46128,-425.04095)" class="st0">
	<path class="st1" d="M698.2,554.7c-2.2-2.2-4-4-4-4c0,0,0.5-0.5,0.5-0.5c0,0,1.7,1.7,3.8,3.7c2,2,3.7,3.7,3.7,3.7s1.7-1.7,3.7-3.7
		c2-2,3.7-3.7,3.7-3.7c0,0,0.5,0.5,0.5,0.5c0,0-8,8-8,8C702.2,558.7,700.4,556.9,698.2,554.7L698.2,554.7z"/>
</g>
</svg>
