<svg width="1604" height="1296" viewBox="0 0 1604 1296" fill="none" xmlns="http://www.w3.org/2000/svg">
    <rect width="1604" height="1296" fill="black" />
    <mask id="mask0_2_14" style="mask-type:luminance" maskUnits="userSpaceOnUse" x="0" y="288" width="1604"
        height="719">
        <path d="M1603.2 288.9H0V1006.5H1603.2V288.9Z" fill="white" />
    </mask>
    <g mask="url(#mask0_2_14)">
        <path
            d="M358.8 528.1C293.02 528.1 239.2 581.92 239.2 647.7C239.2 713.48 293.02 767.3 358.8 767.3C424.58 767.3 478.4 713.812 478.4 647.7C478.4 581.587 424.912 528.1 358.8 528.1ZM358.8 724.443C317.937 724.443 285.046 690.889 285.046 647.7C285.046 604.511 317.937 570.956 358.8 570.956C399.663 570.956 432.553 604.511 432.553 647.7C432.553 690.889 399.663 724.443 358.8 724.443Z"
            fill="white" />
        <path
            d="M599.326 594.544C577.732 594.544 556.802 603.182 545.838 617.8V597.866H502.649V830.422H545.838V746.37C556.802 759.991 577.067 767.3 599.326 767.3C645.837 767.3 682.382 730.755 682.382 680.922C682.382 631.089 645.837 594.544 599.326 594.544ZM592.017 729.759C567.433 729.759 545.506 710.49 545.506 680.922C545.506 651.354 567.433 632.085 592.017 632.085C616.602 632.085 638.528 651.354 638.528 680.922C638.528 710.49 616.602 729.759 592.017 729.759Z"
            fill="white" />
        <path
            d="M784.046 594.544C736.871 594.544 699.662 631.421 699.662 680.922C699.662 730.423 732.22 767.3 785.375 767.3C828.896 767.3 856.803 741.054 865.441 711.486H823.249C817.933 723.779 802.983 732.416 785.043 732.416C762.784 732.416 745.841 716.802 741.854 694.543H867.434V677.6C867.434 632.417 835.873 594.544 784.046 594.544ZM742.186 663.979C746.838 643.049 764.113 629.428 785.043 629.428C807.302 629.428 824.245 644.045 826.239 663.979H742.186Z"
            fill="white" />
        <path
            d="M982.38 594.544C963.111 594.544 942.845 603.182 933.543 617.468V597.866H890.354V763.978H933.543V674.61C933.543 648.696 947.496 631.753 970.087 631.753C991.017 631.753 1002.31 647.7 1002.31 669.959V763.978H1045.5V662.982C1045.5 621.786 1020.25 594.544 982.38 594.544Z"
            fill="white" />
        <path
            d="M1156.12 531.428L1062.1 763.984H1108.28L1128.21 713.154H1235.19L1255.12 763.984H1301.96L1208.61 531.428H1156.12ZM1143.16 674.616L1181.7 577.275L1219.9 674.616H1143.16Z"
            fill="white" />
        <path d="M1363.42 531.428H1319.57V763.984H1363.42V531.428Z" fill="white" />
    </g>
</svg>