<svg width="1604" height="1006" viewBox="0 0 1604 1006" fill="none" xmlns="http://www.w3.org/2000/svg">
    <rect width="1604" height="1006" fill="black" />
    <mask id="mask0_2_14" style="mask-type:luminance" maskUnits="userSpaceOnUse" x="0" y="143" width="1604"
        height="719">
        <path d="M1603.2 143.9H0V861.5H1603.2V143.9Z" fill="white" />
    </mask>
    <g mask="url(#mask0_2_14)">
        <path
            d="M358.8 383.1C293.02 383.1 239.2 436.92 239.2 502.7C239.2 568.48 293.02 622.3 358.8 622.3C424.58 622.3 478.4 568.812 478.4 502.7C478.4 436.587 424.912 383.1 358.8 383.1ZM358.8 579.443C317.937 579.443 285.046 545.889 285.046 502.7C285.046 459.511 317.937 425.956 358.8 425.956C399.663 425.956 432.553 459.511 432.553 502.7C432.553 545.889 399.663 579.443 358.8 579.443Z"
            fill="white" />
        <path
            d="M599.326 449.544C577.732 449.544 556.802 458.182 545.838 472.8V452.866H502.649V685.422H545.838V601.37C556.802 614.991 577.067 622.3 599.326 622.3C645.837 622.3 682.382 585.755 682.382 535.922C682.382 486.089 645.837 449.544 599.326 449.544ZM592.017 584.759C567.433 584.759 545.506 565.49 545.506 535.922C545.506 506.354 567.433 487.085 592.017 487.085C616.602 487.085 638.528 506.354 638.528 535.922C638.528 565.49 616.602 584.759 592.017 584.759Z"
            fill="white" />
        <path
            d="M784.046 449.544C736.871 449.544 699.662 486.421 699.662 535.922C699.662 585.423 732.22 622.3 785.375 622.3C828.896 622.3 856.803 596.054 865.441 566.486H823.249C817.933 578.779 802.983 587.416 785.043 587.416C762.784 587.416 745.841 571.802 741.854 549.543H867.434V532.6C867.434 487.417 835.873 449.544 784.046 449.544ZM742.186 518.979C746.838 498.049 764.113 484.428 785.043 484.428C807.302 484.428 824.245 499.045 826.239 518.979H742.186Z"
            fill="white" />
        <path
            d="M982.38 449.544C963.111 449.544 942.845 458.182 933.543 472.468V452.866H890.354V618.978H933.543V529.61C933.543 503.696 947.496 486.753 970.087 486.753C991.017 486.753 1002.31 502.7 1002.31 524.959V618.978H1045.5V517.982C1045.5 476.786 1020.25 449.544 982.38 449.544Z"
            fill="white" />
        <path
            d="M1156.12 386.428L1062.1 618.984H1108.28L1128.21 568.154H1235.19L1255.12 618.984H1301.96L1208.61 386.428H1156.12ZM1143.16 529.616L1181.7 432.275L1219.9 529.616H1143.16Z"
            fill="white" />
        <path d="M1363.42 386.428H1319.57V618.984H1363.42V386.428Z" fill="white" />
    </g>
</svg>